<svg width="40" height="40" viewBox="0 0 40 40" fill="none" xmlns="http://www.w3.org/2000/svg">
<path d="M26.205 10.25H29.513L22.286 18.51L30.788 29.75H24.13L18.916 22.933L12.95 29.75H9.64L17.37 20.915L9.215 10.25H16.04L20.753 16.481L26.205 10.25ZM25.044 27.77H26.877L15.045 12.126H13.078L25.044 27.77Z" fill="black"/>
<path d="M26.205 10.25H29.513L22.286 18.51L30.788 29.75H24.13L18.916 22.933L12.95 29.75H9.64L17.37 20.915L9.215 10.25H16.04L20.753 16.481L26.205 10.25ZM25.044 27.77H26.877L15.045 12.126H13.078L25.044 27.77Z" fill="#B2D6FF"/>
<circle cx="20" cy="20" r="19.5" stroke="#B2D6FF"/>
</svg>
