<svg width="41" height="40" viewBox="0 0 41 40" fill="none" xmlns="http://www.w3.org/2000/svg">
<circle cx="20.6666" cy="20" r="20" fill="#41FF51"/>
<path d="M28.6666 18.128C28.6666 14.2964 28.6666 12.3806 27.495 11.1903C26.3235 10 24.4378 10 20.6666 10H18.6666C14.8954 10 13.0098 10 11.8382 11.1903C10.6666 12.3806 10.6666 14.2964 10.6666 18.128C10.6666 21.9596 10.6666 23.8754 11.8382 25.0657C12.3078 25.5428 12.8921 25.8287 13.6666 26" stroke="#006609" stroke-width="1.5" stroke-linecap="round"/>
<path d="M30.6666 25.5C30.6666 23.6251 30.6666 22.6877 30.1891 22.0305C30.0349 21.8183 29.8483 21.6317 29.6361 21.4775C28.9789 21 28.0415 21 26.1666 21H21.1666C19.2917 21 18.3543 21 17.6972 21.4775C17.4849 21.6317 17.2983 21.8183 17.1441 22.0305C16.6666 22.6877 16.6666 23.6251 16.6666 25.5C16.6666 27.3749 16.6666 28.3123 17.1441 28.9695C17.2983 29.1817 17.4849 29.3683 17.6972 29.5225C18.3543 30 19.2917 30 21.1666 30H26.1666C28.0415 30 28.9789 30 29.6361 29.5225C29.8483 29.3683 30.0349 29.1817 30.1891 28.9695C30.6666 28.3123 30.6666 27.3749 30.6666 25.5Z" stroke="#006609" stroke-width="1.5"/>
<path d="M25.1666 24L26.0865 24.7929C26.4732 25.1262 26.6666 25.2929 26.6666 25.5C26.6666 25.7071 26.4732 25.8738 26.0865 26.2071L25.1666 27" stroke="#006609" stroke-width="1.5" stroke-linecap="round" stroke-linejoin="round"/>
<path d="M22.1666 24L21.2467 24.7929C20.86 25.1262 20.6666 25.2929 20.6666 25.5C20.6666 25.7071 20.86 25.8738 21.2467 26.2071L22.1666 27" stroke="#006609" stroke-width="1.5" stroke-linecap="round" stroke-linejoin="round"/>
<path d="M11.1666 14H28.1666" stroke="#006609" stroke-width="1.5" stroke-linecap="round" stroke-linejoin="round"/>
</svg>
