<svg width="41" height="40" viewBox="0 0 41 40" fill="none" xmlns="http://www.w3.org/2000/svg">
<circle cx="20.3333" cy="20" r="20" fill="#41FFFC"/>
<path d="M23.5087 30V29.0117V28.9908C23.5138 28.4457 23.9607 28.0051 24.5134 28L24.5884 27.9999C26.02 27.9885 27.2499 26.9942 27.542 25.612L27.5526 25.5601L28.0718 23L29.0131 22.5359C29.5169 22.2875 29.7687 22.1633 29.8232 21.9356C29.8777 21.7079 29.7088 21.4857 29.3709 21.0414L27.4634 18.5333C27.2736 18.2837 27.1787 18.1589 27.1278 18.0269C27.077 17.8949 27.0613 17.7078 27.0301 17.3335C26.6866 13.2271 23.1982 10 18.9456 10C14.4653 10 10.8333 13.5817 10.8333 18C10.8333 20.7497 12.24 23.1753 14.3825 24.6153M14.3825 24.6153V30M14.3825 24.6153C15.0023 25.0319 15.6837 25.366 16.4105 25.6016" stroke="#006664" stroke-width="1.5" stroke-linecap="round" stroke-linejoin="round"/>
<path d="M22.3333 17L23.2532 17.7929C23.6399 18.1262 23.8333 18.2929 23.8333 18.5C23.8333 18.7071 23.6399 18.8738 23.2532 19.2071L22.3333 20" stroke="#006664" stroke-width="1.5" stroke-linecap="round" stroke-linejoin="round"/>
<path d="M15.3333 17L14.4134 17.7929C14.0267 18.1262 13.8333 18.2929 13.8333 18.5C13.8333 18.7071 14.0267 18.8738 14.4134 19.2071L15.3333 20" stroke="#006664" stroke-width="1.5" stroke-linecap="round" stroke-linejoin="round"/>
<path d="M19.8333 16L17.8333 21" stroke="#006664" stroke-width="1.5" stroke-linecap="round" stroke-linejoin="round"/>
</svg>
