<svg width="40" height="40" viewBox="0 0 40 40" fill="none" xmlns="http://www.w3.org/2000/svg">
<circle cx="20" cy="20" r="20" fill="#FFE641"/>
<path d="M30 20C30 14.4771 25.5228 10 20 10C14.4771 10 10 14.4771 10 20C10 25.5228 14.4771 30 20 30C25.5228 30 30 25.5228 30 20Z" stroke="#665900" stroke-width="1.5"/>
<path d="M20.4014 16.298L23.3213 15.3247C24.2075 15.0292 24.6507 14.8815 24.8846 15.1154C25.1185 15.3494 24.9708 15.7925 24.6753 16.6787L23.702 19.5986C23.1986 21.1088 22.9469 21.8639 22.4054 22.4054C21.8639 22.9469 21.1088 23.1986 19.5986 23.702L16.6787 24.6753C15.7925 24.9708 15.3494 25.1185 15.1154 24.8846C14.8815 24.6507 15.0292 24.2075 15.3247 23.3213L16.298 20.4014C16.8014 18.8912 17.0531 18.1361 17.5946 17.5946C18.1361 17.0531 18.8912 16.8014 20.4014 16.298Z" stroke="#665900" stroke-width="1.5" stroke-linecap="round" stroke-linejoin="round"/>
<path d="M20 20L19.9936 20.0064" stroke="#665900" stroke-width="2" stroke-linecap="round" stroke-linejoin="round"/>
</svg>
