<svg width="41" height="40" viewBox="0 0 41 40" fill="none" xmlns="http://www.w3.org/2000/svg">
<g clip-path="url(#clip0_110_310)">
<path d="M29.0183 31.4941H21.6986C21.6986 29.0838 23.6454 27.1315 26.0491 27.1315H29.0291C32.9663 27.1315 36.2509 23.9905 36.3161 20.0424C36.3814 16.018 33.1294 12.7352 29.1379 12.7352C27.3977 12.7352 25.7228 13.3678 24.4176 14.5129L14.8901 23.1071C13.1065 24.7212 10.3548 24.5686 8.74512 22.7799L21.3832 11.3828C21.4267 11.3392 21.4811 11.2956 21.5246 11.2519L21.9814 10.8702C24.0152 9.25609 26.5385 8.37268 29.1379 8.37268C35.5222 8.37268 40.6992 13.5968 40.6666 19.9988C40.634 26.379 35.3699 31.4941 29.0183 31.4941Z" fill="#0033E5"/>
<path d="M12.0623 31.4941C5.67802 31.4941 0.500972 26.2699 0.533601 19.8679C0.566229 13.4877 5.83028 8.37268 12.1928 8.37268H19.5125C19.5125 10.783 17.5656 12.7352 15.162 12.7352H12.1711C8.23391 12.7352 4.94932 15.8762 4.88406 19.8243C4.8188 23.8487 8.07077 27.1315 12.0623 27.1315C13.8025 27.1315 15.4774 26.499 16.7826 25.3538L26.3101 16.7596C28.0938 15.1455 30.8454 15.2982 32.4551 17.0868L19.2514 28.9965H19.2188C17.185 30.6107 14.6726 31.4941 12.0623 31.4941Z" fill="#0033E5"/>
</g>
<defs>
<clipPath id="clip0_110_310">
<rect width="40" height="40" fill="white" transform="translate(0.666748)"/>
</clipPath>
</defs>
</svg>
