<svg width="40" height="36" viewBox="0 0 40 36" fill="none" xmlns="http://www.w3.org/2000/svg">
<path d="M39.5997 26.6484C33.1389 19.5552 28.2218 11.1942 25.1572 2.11351C24.9514 1.50813 24.3796 1.09693 23.7392 1.09693C21.2464 0.708575 18.765 0.708575 16.2721 1.09693C15.6318 1.09693 15.06 1.50813 14.8542 2.11351C11.7781 11.1942 6.86102 19.5552 0.388754 26.6484C0.0228306 27.0482 -0.102956 27.6193 0.068571 28.1219C0.846158 30.452 2.02397 32.5994 3.52197 34.4841C3.87646 34.9296 4.45965 35.1466 5.01997 35.0209C14.877 32.8393 25.1115 32.8393 34.9685 35.0209C35.5288 35.1466 36.112 34.9296 36.4665 34.4841C37.9645 32.5994 39.1423 30.452 39.9199 28.1219C40.0914 27.6193 39.9657 27.0482 39.5997 26.6484ZM34.6369 30.018L28.5877 26.4543C23.2818 23.3246 16.6952 23.3246 11.4008 26.4543L5.35159 30.018L4.67692 28.8758L11.0348 25.1293C16.1806 22.091 19.3367 16.5626 19.3367 10.6002V4.50075H20.6746V10.6002C20.6746 16.574 23.8307 22.091 28.9765 25.1293L35.323 28.8758L34.6369 30.018Z" fill="#006609"/>
</svg>
