<svg width="41" height="40" viewBox="0 0 41 40" fill="none" xmlns="http://www.w3.org/2000/svg">
<g clip-path="url(#clip0_110_318)">
<path d="M36.8666 14.3381L31.72 34.6249C31.6 35.0917 31.1866 35.4252 30.72 35.4252L10.8933 35.4518C10.4666 35.4518 10.2266 35.9587 10.48 36.3054L12.84 39.5732C13.04 39.84 13.3466 40 13.6666 40L23.8666 39.9867C30.32 39.9733 35.9466 35.4785 37.5866 29.0097L40.2933 18.3128C40.3733 17.9927 40.3066 17.6592 40.12 17.4058L37.76 14.1514C37.5066 13.8046 36.9733 13.9113 36.8666 14.3381Z" fill="#665900"/>
<path d="M20.68 30.997C25.1734 30.997 29.0934 27.8493 30.24 23.3545L32.7334 13.5245L33.8 9.33644C33.88 9.01634 33.8134 8.68289 33.6267 8.42948L30.6267 4.29476L27.8267 0.426809C27.6267 0.160053 27.32 0 27 0L16.8 0.0133378C10.3467 0.0133378 4.70671 4.52151 3.08004 10.977L0.373377 21.6739C0.293377 21.994 0.360044 22.3274 0.546711 22.5809L3.54671 26.7156L6.34671 30.5835C6.54671 30.8503 6.85338 31.0103 7.17338 31.0103H11.24L20.68 30.997ZM24.2134 26.4488L13.2134 26.4622C12.7867 26.4622 12.48 26.0487 12.5867 25.6219L15.44 14.3381C15.56 13.8713 15.9734 13.5378 16.44 13.5378L27.44 13.5245C27.8667 13.5245 28.1734 13.938 28.0667 14.3648L25.2134 25.6486C25.0934 26.1154 24.68 26.4488 24.2134 26.4488ZM3.81338 25.6352L8.94671 5.36179C9.06671 4.89497 9.48004 4.56152 9.94671 4.56152L29.7334 4.53484C30.16 4.53484 30.4667 4.94832 30.36 5.37512L29.6 8.37613C29.5067 8.72291 29.2 8.97633 28.8534 8.97633H23.32C16.88 8.98966 11.24 13.4845 9.60004 19.9533L8.09338 25.8753C8.00004 26.2221 7.69338 26.4755 7.34671 26.4755H4.44004C4.01338 26.4755 3.70671 26.062 3.81338 25.6352Z" fill="#665900"/>
</g>
<defs>
<clipPath id="clip0_110_318">
<rect width="40" height="40" fill="white" transform="translate(0.333496)"/>
</clipPath>
</defs>
</svg>
