<svg width="55" height="56" viewBox="0 0 55 56" fill="none" xmlns="http://www.w3.org/2000/svg">
<path fill-rule="evenodd" clip-rule="evenodd" d="M52.8344 47.525L39.0844 6.27504C38.8452 5.56354 38.3797 4.94989 37.759 4.5278C37.1383 4.10572 36.3965 3.89841 35.6469 3.93754H19.3531C18.6325 3.93568 17.9295 4.16035 17.3435 4.57981C16.7575 4.99926 16.3181 5.59228 16.0875 6.27504L2.16562 47.525C1.98509 48.0569 1.93765 48.625 2.02744 49.1794C2.11724 49.7339 2.34154 50.2579 2.68073 50.7056C3.01991 51.1534 3.46364 51.5111 3.9731 51.7477C4.48256 51.9842 5.04222 52.0923 5.60312 52.0625H15.675C16.3898 52.0572 17.0851 51.8292 17.6643 51.4103C18.2434 50.9913 18.6775 50.4022 18.9062 49.725L21.0031 43.6063L31.3156 51.4094C31.9149 51.8434 32.6382 52.0725 33.3781 52.0625H49.4656C50.0208 52.0807 50.5722 51.9641 51.0725 51.7226C51.5728 51.4811 52.0071 51.122 52.3383 50.676C52.6694 50.2299 52.8875 49.7103 52.9739 49.1615C53.0603 48.6128 53.0124 48.0512 52.8344 47.525ZM33.5156 49.7938C33.2658 49.794 33.0233 49.7091 32.8281 49.5532L13.4062 35.15L13.0969 34.9094H23.4094L23.6844 34.1875L27.1219 25.4907L34.8219 48.2813C34.8837 48.4724 34.8953 48.6762 34.8555 48.8731C34.8157 49.0699 34.7258 49.2532 34.5945 49.4052C34.4632 49.5572 34.295 49.6729 34.106 49.7409C33.917 49.809 33.7137 49.8272 33.5156 49.7938ZM49.5687 49.7938H36.7812C37.038 49.0593 37.038 48.2595 36.7812 47.525L22.8594 6.27504H35.6469C35.8896 6.27626 36.126 6.35305 36.3231 6.49473C36.5202 6.63641 36.6683 6.83596 36.7469 7.06566L50.6687 48.3157C50.7158 48.4869 50.7232 48.6667 50.6904 48.8413C50.6576 49.0158 50.5854 49.1806 50.4794 49.3231C50.3733 49.4656 50.2362 49.5821 50.0784 49.6636C49.9206 49.7452 49.7463 49.7897 49.5687 49.7938Z" fill="#665900"/>
</svg>
