<svg width="55" height="56" viewBox="0 0 55 56" fill="none" xmlns="http://www.w3.org/2000/svg">
<g clip-path="url(#clip0_109_42)">
<path d="M0 0.5H55V55.5H0V0.5Z" fill="#665900"/>
<path d="M9.80268 35.6388C9.41381 35.6388 9.08331 35.5092 8.81117 35.2501C8.53904 34.9843 8.4029 34.6686 8.40276 34.3031C8.40276 33.931 8.53882 33.612 8.81096 33.3462C9.08324 33.0803 9.41381 32.9474 9.80268 32.9474C10.198 32.9474 10.5318 33.0803 10.8041 33.3462C11.0828 33.612 11.2222 33.931 11.2222 34.3031C11.2222 34.6685 11.0828 34.9841 10.8041 35.2501C10.5319 35.5094 10.1982 35.639 9.80289 35.639M25.3492 35.4198H22.8216L16.1616 24.9127C15.9955 24.6513 15.8555 24.3743 15.7435 24.0855H15.6851L15.6952 24.1511L15.7044 24.2263L15.713 24.3107L15.7212 24.4044L15.7317 24.5625L15.7407 24.7412L15.7483 24.9411L15.7543 25.1619L15.7586 25.4036L15.7607 25.5766L15.7629 26.0492V35.4194H13.5268V21.125H16.2198L22.6559 31.3823L22.8149 31.6334L22.9174 31.7984L23.005 31.9435L23.0781 32.0687L23.1189 32.1413L23.1533 32.2049L23.1812 32.2597H23.2199L23.2126 32.2146L23.1988 32.1179L23.1859 32.012L23.1746 31.8966L23.1694 31.8354L23.1595 31.7061L23.1509 31.5675L23.1434 31.4192L23.1344 31.1799L23.1279 30.9195L23.1241 30.6381L23.1228 30.3358V21.125H25.349L25.3492 35.4198ZM36.2386 35.4198H28.4122V21.125H35.9275V23.1387H30.7261V27.1857H35.5193V29.1894H30.7261V33.416H36.2386V35.4198ZM47.3614 23.1389H43.3555V35.4198H41.0416V23.1389H37.0455V21.125H47.361L47.3614 23.1389Z" fill="white"/>
</g>
<defs>
<clipPath id="clip0_109_42">
<rect width="55" height="55" fill="white" transform="translate(0 0.5)"/>
</clipPath>
</defs>
</svg>
