<svg width="55" height="56" viewBox="0 0 55 56" fill="none" xmlns="http://www.w3.org/2000/svg">
<path d="M3.4375 3.9375V52.0625H51.5625V3.9375H3.4375ZM29.6278 41.4698C29.6278 46.1534 26.8778 48.2916 22.8714 48.2916C19.2517 48.2916 17.1566 46.4233 16.0823 44.1562L19.7673 41.9322C20.4772 43.1886 21.1217 44.2525 22.6789 44.2525C24.1605 44.2525 25.1058 43.6716 25.1058 41.4062V26.0338H29.6278V41.4698ZM40.3253 48.2916C36.1247 48.2916 33.4073 46.2944 32.0856 43.6716L35.7706 41.5455C36.7383 43.125 38.005 44.2955 40.2291 44.2955C42.0973 44.2955 43.3022 43.3605 43.3022 42.0611C43.3022 40.5142 42.0767 39.9659 40.0039 39.0533L38.8764 38.5703C35.6108 37.185 33.452 35.4336 33.452 31.7486C33.452 28.3541 36.0405 25.7759 40.0692 25.7759C42.9481 25.7759 45.0106 26.7745 46.4939 29.3956L42.9705 31.6523C42.197 30.267 41.3583 29.7188 40.0589 29.7188C38.7389 29.7188 37.9002 30.5575 37.9002 31.6523C37.9002 33.0067 38.7389 33.5533 40.6828 34.4023L41.8103 34.8853C45.6569 36.5284 47.8156 38.2163 47.8156 41.9958C47.8156 46.0572 44.6136 48.2898 40.327 48.2898L40.3253 48.2916Z" fill="#665900"/>
</svg>
