<svg width="55" height="56" viewBox="0 0 55 56" fill="none" xmlns="http://www.w3.org/2000/svg">
<g clip-path="url(#clip0_109_63)">
<path d="M22.7455 0.5V0.500859C22.5625 0.475938 19.6062 1.5407 17.7001 2.31543C15.1272 3.36387 13.13 4.36332 11.8976 5.22871C11.4997 5.51102 11.015 5.98066 10.8341 6.24707L10.8311 6.23805C10.8195 6.2584 10.8096 6.27967 10.8015 6.30164C10.792 6.31883 10.7791 6.33859 10.7731 6.3532C10.7391 6.44381 10.7223 6.54001 10.7237 6.6368L10.7512 6.66258C10.7585 6.75152 10.7791 6.85164 10.8234 6.96121C10.9317 7.22762 11.2479 7.55246 11.6063 7.88504C11.6063 7.88504 15.3106 11.4983 15.7605 12.0143C17.8084 14.3789 18.6996 16.7095 18.7829 19.9232C18.8332 21.9878 18.4409 23.8032 17.4668 25.9096C15.7352 29.6891 12.0807 33.8605 6.44446 38.4891L6.52997 38.4603C6.4913 38.4912 6.44059 38.5351 6.40321 38.5643C5.7286 39.0971 4.72915 40.0961 4.22126 40.7291C3.46329 41.6782 2.86473 42.6854 2.60649 43.4597C2.14844 44.8584 2.37317 46.2733 3.25532 47.5804C4.38798 49.2455 6.64427 50.9449 9.27524 52.1012C10.6159 52.6928 12.8709 53.4504 14.5699 53.8745C17.3916 54.5908 22.8542 55.3651 25.859 55.4811C26.4666 55.5064 27.2822 55.5064 27.3157 55.4811C27.3823 55.4394 27.8489 54.5495 28.3903 53.4427C30.238 49.6709 31.5696 46.1324 32.2945 43.11C32.7272 41.2786 33.0683 38.8389 33.2931 35.9501C33.3515 35.1423 33.3764 32.4365 33.3266 31.5209C33.2514 30.0225 33.119 28.807 32.9106 27.6167C32.8947 27.5355 32.8846 27.4532 32.8806 27.3705C39.5742 25.3819 46.9606 23.5802 51.8672 22.8296L52.6251 22.7131L52.5082 22.5292C51.8422 21.4967 51.3846 20.856 50.835 20.1732C49.2366 18.1924 47.2974 16.5858 44.9243 15.2537C41.6608 13.4302 37.4395 12.0066 32.0947 10.9491C31.0875 10.7493 28.8741 10.3661 27.0759 10.0915L26.9083 9.79113C25.9256 8.05949 24.8437 5.91234 24.2108 4.46387C23.72 3.3398 23.2534 2.04086 22.9956 1.10844C22.8538 0.542109 22.8379 0.508594 22.7455 0.5ZM22.6123 0.924531H22.6209C22.6286 0.933125 22.6617 1.16688 22.6952 1.44145C22.837 2.60676 23.0953 3.73082 23.5035 4.94641C23.8111 5.86164 23.8111 5.81223 23.4532 5.70395C22.6041 5.47105 18.7997 4.81363 16.0437 4.43035C15.6024 4.37234 15.2277 4.31391 15.2277 4.30531C15.1946 4.2718 17.2172 3.2152 18.1079 2.79883C19.2483 2.27461 22.379 0.966211 22.6123 0.924531ZM14.5866 4.65508L14.9115 4.76336C16.6766 5.36277 21.1136 6.2127 23.5611 6.4125C23.8361 6.43742 24.069 6.46191 24.0767 6.46191C24.0853 6.47051 23.8532 6.59512 23.5529 6.73648C22.3713 7.32773 21.0715 8.05176 20.1725 8.60992C19.968 8.73711 19.7807 8.84453 19.6883 8.88836L18.8581 8.75301L18.0744 7.98516C17.062 6.99923 16.0437 6.01952 15.0193 5.04609L14.5866 4.65508ZM14.2536 4.91375L15.4275 6.37898C16.0686 7.1868 16.7179 7.97742 16.8592 8.1523C16.9843 8.30656 17.0754 8.41957 17.0925 8.45309C16.2611 8.30828 15.3712 8.14887 14.6863 8.00105C14.1866 7.89277 13.2297 7.66805 12.4803 7.41023C12.4029 7.38016 12.3149 7.3475 12.2311 7.31613V7.22805C12.2397 6.66945 12.9469 5.83672 14.1453 4.98809L14.2536 4.91375ZM24.2108 6.91008C24.2176 6.90721 24.2234 6.90779 24.2279 6.9118C24.261 6.9118 24.3018 6.9857 24.4015 7.21043C24.6851 7.83477 25.5681 9.51656 25.7847 9.84141L25.8122 9.88609C24.2388 9.63704 22.6665 9.38066 21.0955 9.11695C21.1463 9.07987 21.1997 9.04655 21.2554 9.01727C22.1298 8.5343 23.0119 7.91855 23.7948 7.2607C23.986 7.10258 24.1605 6.95348 24.1944 6.92856C24.1979 6.92093 24.2036 6.91451 24.2108 6.91008ZM12.9796 8.31731C12.9877 8.30957 13.1209 8.36027 13.2958 8.41828C13.6946 8.55196 14.0973 8.6739 14.5032 8.78395C14.8686 8.88444 15.2348 8.98155 15.602 9.07527C16.1013 9.19988 16.5181 9.31719 16.5258 9.31719C16.5847 9.37563 17.4256 12.0646 17.7087 13.0971C17.817 13.4882 17.9004 13.8212 17.8922 13.8212C17.8836 13.8298 17.7916 13.688 17.6834 13.4963C16.7093 11.7819 15.1693 10.0416 13.3874 8.64215C13.1545 8.47586 12.9791 8.3259 12.9791 8.31731H12.9796ZM17.0672 9.44223C17.0672 9.45856 17.0672 9.45082 17.0758 9.45082C17.1179 9.45082 17.3009 9.47531 17.5257 9.52516C18.9406 9.84141 21.4801 10.3244 23.103 10.5994C23.378 10.6411 23.5941 10.6913 23.5941 10.7077C23.5941 10.7248 23.4953 10.7829 23.3699 10.8495C23.0949 10.9913 21.9875 11.6487 21.621 11.8979C20.6972 12.5145 19.8649 13.1796 19.2655 13.7791C19.1169 13.9277 18.9669 14.0749 18.8156 14.2208C18.8156 14.2208 18.7662 14.079 18.7241 13.9041C18.4246 12.7465 17.8002 11.0321 17.2335 9.82465C17.142 9.63344 17.0672 9.45856 17.0672 9.44223ZM24.2859 10.8237C24.3354 10.8409 24.4191 11.124 24.5854 11.7484C24.8977 12.994 25.0322 14.2776 24.985 15.561C24.9679 15.9107 24.9511 16.2356 24.9343 16.2777L24.9099 16.3598L24.4772 16.218C23.5864 15.9352 22.1379 15.5111 20.8979 15.1614C20.1897 14.9697 19.6152 14.7953 19.6152 14.7789C19.6152 14.7287 20.6478 13.6961 21.0891 13.3051C21.9295 12.5639 24.2103 10.7992 24.2859 10.8237ZM24.8596 10.9075C24.8845 10.8825 28.3074 11.4729 29.8641 11.7729C31.0217 11.9976 32.7031 12.3478 32.8032 12.3895C32.8526 12.4066 32.6782 12.505 32.12 12.7555C29.9222 13.746 28.2898 14.6376 26.6664 15.7195C26.2419 16.0031 25.8835 16.2356 25.8758 16.2356C25.8672 16.2356 25.859 15.9941 25.859 15.7028C25.859 14.1211 25.5436 12.5227 24.9606 11.1739C24.9021 11.0407 24.8514 10.9156 24.8596 10.9075ZM33.7094 12.6554C33.7343 12.6799 33.6265 13.3554 33.5264 13.755C33.2265 14.9955 32.4195 16.8359 31.4295 18.5675C31.2538 18.8752 31.0952 19.1248 31.0784 19.133C31.0617 19.1411 30.8387 19.0157 30.58 18.8657C29.6145 18.2994 28.5149 17.7679 27.3161 17.2681C26.9831 17.1263 26.6913 17.0099 26.6832 16.9927C26.6247 16.9433 29.306 15.17 30.7209 14.3205C31.8454 13.6377 33.6768 12.6223 33.7094 12.6554ZM34.3432 12.7555C34.418 12.7555 35.9331 13.1715 36.7237 13.4048C38.6805 13.9875 40.9277 14.812 42.393 15.478L43.0006 15.7522L42.5769 15.8523C38.9976 16.6764 35.9326 17.6265 32.9768 18.8249C32.7353 18.925 32.5188 19.0075 32.5024 19.0075C32.4861 19.0075 32.5699 18.8167 32.6782 18.5838C33.5689 16.6936 34.1425 14.7205 34.2843 13.0383C34.2925 12.8802 34.3183 12.7555 34.3432 12.7555ZM19.2569 16.2188C19.2818 16.1939 20.439 16.4689 21.0637 16.6438C22.0133 16.9102 24.0281 17.5848 24.0281 17.6338C24.0281 17.6424 23.8025 17.834 23.5361 18.0669C22.4456 18.9744 21.3963 19.9322 20.139 21.1478C19.7648 21.5057 19.449 21.7966 19.4322 21.7966C19.415 21.7966 19.4068 21.7472 19.415 21.6806C19.6062 20.282 19.5654 18.4837 19.299 16.6605C19.2732 16.4272 19.2487 16.227 19.2569 16.2188ZM43.5755 16.2442C43.5918 16.2609 43.0427 17.1259 42.6925 17.617C42.1932 18.3333 41.4606 19.2829 39.8041 21.3639C39.0742 22.2801 38.3471 23.1987 37.623 24.1195C37.29 24.5359 37.015 24.8856 37.006 24.8856C36.9982 24.8856 36.89 24.7352 36.7735 24.5526C35.8411 23.1536 34.7252 21.9302 33.4013 20.8315C33.1998 20.6606 32.9948 20.4939 32.7865 20.3314C32.6945 20.2648 32.6189 20.1982 32.6189 20.1896C32.6189 20.1651 34.0343 19.5571 35.1085 19.1244C36.9905 18.3582 39.5536 17.443 41.4773 16.8513C42.4845 16.5355 43.5587 16.2274 43.5755 16.2442ZM44.2166 16.4105C44.2497 16.4019 44.4499 16.5024 44.6909 16.6438C46.7143 17.8009 48.6956 19.2915 50.261 20.8229C50.7023 21.2561 51.7924 22.3874 51.7756 22.3956C51.7756 22.3956 51.3928 22.43 50.9433 22.463C47.4384 22.7295 42.9511 23.4698 38.6392 24.5105C38.347 24.5771 38.0892 24.6355 38.0725 24.6355C38.0557 24.6355 38.3801 24.3107 38.7883 23.9197C41.3192 21.4804 42.4763 19.9404 43.8415 17.1925C44.0331 16.7852 44.1998 16.4354 44.2166 16.4105ZM25.6764 18.3088C25.7924 18.3337 26.8744 18.8412 27.6904 19.2494C28.4397 19.6237 29.5642 20.2231 29.6222 20.2734C29.6308 20.2815 29.2312 20.4895 28.7397 20.7314C27.2719 21.4611 25.8357 22.2528 24.435 23.1041C24.0354 23.3456 23.7029 23.5454 23.6947 23.5454C23.6612 23.5454 23.6698 23.5119 23.8945 23.1041C24.6439 21.739 25.2437 20.1071 25.5849 18.5168C25.618 18.3922 25.6515 18.3088 25.6764 18.3088ZM24.5936 18.5082C24.6185 18.5331 24.3358 19.5575 24.1605 20.1152C23.8189 21.1723 23.2448 22.4957 22.6866 23.4952C22.5534 23.728 22.3536 24.0701 22.2454 24.2613L22.0374 24.5939L21.5716 24.1448C21.0302 23.6206 20.5889 23.2949 20.023 23.0032C19.7979 22.8871 19.6234 22.7875 19.6234 22.7711C19.6234 22.7041 21.0474 21.4137 22.1379 20.4813C22.92 19.8067 24.5687 18.4833 24.5936 18.5082ZM31.2125 21.2307L31.6207 21.4971C32.5531 22.1047 33.6514 22.9129 34.4923 23.6198C34.9667 24.0108 35.8824 24.8358 36.0658 25.0352L36.1659 25.1434L35.4913 25.3355C31.6783 26.3925 28.7311 27.3331 25.2927 28.5986C24.9094 28.7404 24.585 28.8564 24.5601 28.8564C24.5102 28.8564 24.4686 28.8976 25.3262 28.1066C27.5241 26.084 29.4727 23.8535 30.9216 21.6806L31.2125 21.2307ZM29.4723 21.6638C29.4895 21.681 28.3491 23.2868 27.6663 24.1943C26.8499 25.2766 25.401 27.0916 24.4015 28.2737C23.9856 28.7653 23.6281 29.1726 23.6109 29.1808C23.586 29.1894 23.5774 29.0648 23.5774 28.8731C23.5774 27.8659 23.32 26.7917 22.8706 25.8761C22.6789 25.4932 22.6458 25.4017 22.6879 25.36C22.8461 25.2182 25.2678 23.8368 26.7992 23.0126C27.8322 22.4626 29.4478 21.6475 29.4723 21.6638ZM18.9492 24.2445C18.9737 24.2445 19.1649 24.3446 19.3819 24.4611C19.8885 24.7372 20.3679 25.0606 20.8136 25.427C20.8308 25.4434 20.6143 25.6187 20.3311 25.8266C19.5405 26.3925 18.3416 27.3005 17.6421 27.8582C16.9095 28.4409 16.8846 28.4572 16.9675 28.3326C17.5175 27.4917 17.7925 27.0169 18.0838 26.4089C18.3519 25.8435 18.5853 25.2623 18.7829 24.6686C18.8495 24.428 18.9325 24.2445 18.9492 24.2445ZM21.7551 26.4415C21.7968 26.4338 21.8466 26.509 22.0709 26.842C22.5453 27.5497 22.9118 28.4993 23.0033 29.265L23.0201 29.4309L21.8797 29.8726C19.84 30.6632 17.9584 31.4461 16.6848 32.0296C16.2193 32.2475 15.7557 32.4692 15.2939 32.6948C14.8857 32.9027 14.5531 33.0613 14.5531 33.0531C14.5531 33.045 14.8109 32.8533 15.1272 32.62C17.6168 30.8136 19.7734 28.8319 21.3886 26.8506C21.5634 26.6426 21.7216 26.451 21.7379 26.4424L21.7551 26.4415ZM20.4647 26.7582V26.7591C20.4982 26.7921 19.5486 27.8659 18.8994 28.5238C17.2924 30.1635 15.7021 31.4461 13.729 32.6948C13.4789 32.8529 13.2546 32.9943 13.2297 33.0106C13.1716 33.0441 13.246 32.9607 14.1122 32.0202C14.6199 31.4754 15.1006 30.9061 15.5525 30.3143C15.8688 29.9061 15.9268 29.8477 16.3849 29.5237C17.6095 28.6402 20.4316 26.7251 20.4647 26.7582ZM31.6254 27.7465C31.7432 28.2007 31.9606 30.3787 32.0199 31.8204C32.0371 32.162 32.0281 32.3867 32.0109 32.3867C31.9447 32.3867 30.6045 31.5961 29.6476 30.9962C28.8183 30.4741 27.2504 29.4347 26.9921 29.2289C28.5287 28.7104 30.0733 28.2162 31.6254 27.7465ZM26.0966 29.5477C26.2058 29.595 26.3695 29.6852 26.6999 29.8893C28.4148 30.9636 30.7467 32.2621 31.7457 32.6952C32.0534 32.8284 32.0865 32.7781 31.3788 33.2615C29.8637 34.2936 27.974 35.309 25.6597 36.3329C25.2515 36.516 24.9099 36.6578 24.9017 36.6578C24.8845 36.6578 24.9348 36.4489 25.0014 36.1993C25.5587 34.1261 25.8762 32.0292 25.893 30.3474C25.8973 29.9276 25.899 29.72 25.9097 29.6139L26.0966 29.5477ZM24.8226 30.0011C24.863 30.2056 24.8316 31.8779 24.7681 32.3618C24.619 33.5889 24.3631 34.8006 24.0032 35.9832C23.9113 36.2913 23.827 36.5499 23.8107 36.5662C23.7772 36.6079 22.6368 35.492 22.2621 35.0589C21.6133 34.3095 21.1054 33.561 20.7307 32.8284C20.5571 32.4889 20.3066 31.8809 20.2774 31.7464C21.5015 31.2495 22.7323 30.7689 23.9693 30.3048C24.2344 30.2052 24.5463 30.1016 24.8226 30.0011ZM19.4073 32.1065C19.4275 32.1362 19.4773 32.247 19.5237 32.3867C19.7901 33.1107 20.3887 34.1763 20.9052 34.8591C21.4715 35.6085 22.2127 36.4081 22.8289 36.9323C23.0287 37.0986 23.2113 37.2572 23.2366 37.2821C23.2865 37.3324 23.3032 37.3238 21.9459 37.8403C20.3732 38.4397 18.6579 39.0391 16.6929 39.6716C16.2234 39.823 15.7544 39.9756 15.2857 40.1296C15.2105 40.1546 15.2367 40.1125 15.4529 39.7713C16.427 38.2485 17.9081 35.2596 18.7408 33.1446C18.8826 32.7781 19.024 32.4116 19.0489 32.3282C19.0605 32.2874 19.0773 32.2638 19.0932 32.2376L19.4073 32.1065ZM17.6842 32.837C17.6275 33.0046 17.2661 33.7612 16.8927 34.4926C16.0849 36.0665 15.2028 37.6151 14.0207 39.4967C13.8205 39.8211 13.6297 40.1211 13.6039 40.1541C13.5627 40.2126 13.5459 40.1962 13.4123 39.9384C13.1291 39.3798 12.8966 38.6644 12.7712 38.0066C12.6466 37.3573 12.6715 36.2251 12.8133 35.5255C12.8777 35.2175 12.9061 35.1014 12.968 35.0271C14.5201 34.2548 16.0928 33.5243 17.6842 32.8366V32.837ZM32.0697 33.3526V33.702C32.0697 35.5586 31.8699 38.1062 31.5786 39.9625C31.5288 40.2873 31.4871 40.5542 31.4789 40.5628C31.4789 40.5628 31.237 40.4957 30.9543 40.4124C29.6277 39.9911 28.3452 39.442 27.1249 38.7727C26.3171 38.3314 25.144 37.6065 25.1771 37.5734C25.1853 37.5648 25.5346 37.3822 25.942 37.1652C27.5743 36.3166 29.1393 35.4005 30.4966 34.4926C31.0045 34.1514 31.7698 33.6027 31.9361 33.4527L32.0697 33.3526ZM11.4241 35.8177C11.4559 35.8195 11.4465 35.8878 11.3975 36.1834C11.356 36.4786 11.3254 36.7753 11.3059 37.0728C11.2393 38.2889 11.4391 39.1891 12.0386 40.421C12.2053 40.7621 12.3385 41.0453 12.3299 41.0535C12.2719 41.1037 6.76028 42.7185 5.02864 43.1929C4.51259 43.3347 4.06313 43.4593 4.02962 43.4675C3.97118 43.4846 3.96302 43.4765 3.98794 43.3347C4.17958 42.1109 5.11243 40.5125 6.41137 39.1637C7.27676 38.2644 7.9677 37.7397 9.14977 37.0655C9.54552 36.8404 10.0375 36.5658 10.4633 36.3308C10.7804 36.1583 11.1007 35.9873 11.4241 35.8177ZM24.4097 38.1398H24.4106C24.4191 38.1312 24.6181 38.2395 24.8596 38.3804C26.6415 39.4134 29.1225 40.3711 31.237 40.8623L31.4282 40.9035L31.1622 41.0539C30.0554 41.6696 26.4163 43.1852 22.6952 44.5752C22.1538 44.775 21.6219 44.9748 21.5222 45.0165C21.4221 45.0582 21.3297 45.0831 21.3297 45.0745C21.3297 45.0659 21.4801 44.7746 21.6713 44.4166C22.712 42.4684 23.7609 40.0961 24.2941 38.4479C24.3607 38.2897 24.4011 38.1484 24.4097 38.1398ZM23.0863 38.572H23.0871C23.0957 38.5806 23.0287 38.7559 22.9453 38.9557C22.2209 40.7123 21.2717 42.6274 20.0561 44.775C19.7484 45.325 19.4902 45.7659 19.482 45.7659C19.4739 45.7659 19.2238 45.6155 18.9234 45.4328C17.1591 44.35 15.5934 43.018 14.5699 41.7277L14.4195 41.5446L15.1774 41.3366C17.8913 40.5959 20.1979 39.7966 22.4873 38.8144C22.8121 38.6812 23.0781 38.572 23.0863 38.572ZM31.3118 41.4449C31.3204 41.6366 30.8963 43.3514 30.5465 44.592C30.2552 45.6327 30.0051 46.4482 29.5466 47.8885C29.3472 48.5219 29.1728 49.0457 29.1642 49.0457C29.1556 49.0457 29.1062 49.0379 29.0559 49.0216C26.5835 48.5717 24.3689 47.947 22.2875 47.1146C21.7048 46.8813 20.8725 46.5066 20.8222 46.465C20.8059 46.4482 21.3052 46.2153 21.9381 45.9407C25.7263 44.2839 29.6553 42.4023 31.0045 41.5949C31.1627 41.4948 31.2868 41.4449 31.3118 41.4449ZM12.3222 42.0938C12.3393 42.1109 11.281 43.6342 9.79989 45.7074C9.28298 46.4319 8.68399 47.2805 8.45927 47.5968C8.19915 47.9635 7.94645 48.3354 7.7013 48.7122L7.35153 49.2541L6.97727 48.937C6.53598 48.5704 5.77028 47.7884 5.42868 47.3557C4.71282 46.465 4.22942 45.5235 4.03821 44.6659C3.94626 44.2663 3.94626 44.0669 4.02962 44.0428C5.50504 43.6903 6.98175 43.3431 8.45969 43.0013C9.45395 42.7723 10.4473 42.5393 11.4396 42.3022C11.9225 42.1857 12.314 42.0938 12.3222 42.0938ZM13.3874 42.502L13.6542 42.8014C14.853 44.1421 16.0763 45.1325 17.5583 45.9983C17.8247 46.1487 18.025 46.2815 18.0082 46.2901C17.9502 46.3313 12.8631 48.1377 10.5072 48.9541C9.7013 49.2395 8.89361 49.5197 8.08415 49.7946C8.07598 49.7946 8.00079 49.7443 7.91786 49.6863L7.76747 49.578L8.00938 49.2283C8.79141 48.0961 9.77411 46.856 11.9135 44.2748L13.3874 42.502ZM20.0316 47.2552C20.0398 47.2466 20.4054 47.3798 20.8557 47.5473C21.9381 47.9551 22.7949 48.2134 23.9439 48.5047C25.3593 48.8626 27.4076 49.212 28.6155 49.3125C28.7985 49.3284 28.8978 49.3452 28.8647 49.3701C28.8063 49.4032 27.5821 49.8118 26.6832 50.0945C25.251 50.5444 20.8807 51.8348 17.3173 52.8587C16.8992 52.9811 16.4802 53.1005 16.0604 53.2171C15.9771 53.2334 15.7021 53.1578 15.7021 53.1247C15.7021 53.1084 15.9019 52.8505 16.1434 52.5674C17.3422 51.1352 18.5329 49.5364 19.5237 48.0213C19.7987 47.6049 20.0316 47.2633 20.0316 47.2552ZM18.5655 47.2973H18.5664C18.5745 47.3059 17.9833 48.2542 16.9508 49.8861C16.5099 50.5771 16.0183 51.3608 15.8439 51.635C15.6772 51.9014 15.4266 52.3182 15.2853 52.5506L15.0447 52.9747L14.92 52.9421C14.6197 52.8583 12.5134 52.1175 11.9552 51.8928C11.2939 51.6297 10.6466 51.3325 10.016 51.0025C9.35001 50.6441 8.5177 50.1113 8.5843 50.0945C8.60063 50.0859 9.74102 49.7783 11.1147 49.4036C14.7606 48.4127 16.784 47.8387 18.1079 47.4223C18.3494 47.3471 18.5574 47.2887 18.5655 47.2973ZM28.9309 49.7276H28.9399C28.973 49.8114 27.6238 53.5574 27.1322 54.7395C27.0248 55.0059 26.9827 55.0729 26.9242 55.0643C26.7824 55.0557 24.8269 54.782 23.6363 54.6071C21.5634 54.2909 18.0825 53.6833 17.209 53.483L17.0096 53.4414L18.2497 53.1582C20.9138 52.5588 22.1959 52.2344 23.4949 51.8348C25.1724 51.3218 26.8112 50.6899 28.3989 49.9441C28.6567 49.8281 28.8724 49.7366 28.9309 49.7284V49.7276Z" fill="#665900"/>
</g>
<defs>
<clipPath id="clip0_109_63">
<rect width="55" height="55" fill="white" transform="translate(0 0.5)"/>
</clipPath>
</defs>
</svg>
