<svg width="55" height="56" viewBox="0 0 55 56" fill="none" xmlns="http://www.w3.org/2000/svg">
<path d="M38.5115 2.87061C36.4944 2.88948 34.4887 3.17458 32.5463 3.71852L32.4088 3.75977C31.1857 3.55006 29.9484 3.43438 28.7077 3.41373C26.1571 3.37019 23.964 3.97061 22.1994 4.97206C20.4577 4.3854 16.846 3.37477 13.0396 3.57644C10.3881 3.71623 7.49605 4.49769 5.35334 6.69311C3.21521 8.88852 2.08542 12.2848 2.32375 16.9071C2.38792 18.1835 2.76146 20.2621 3.3848 22.9571C4.00355 25.6498 4.87896 28.8008 5.9675 31.6769C7.05605 34.5529 8.25 37.1402 10.1154 38.8956C11.0458 39.7756 12.3269 40.5158 13.8371 40.4539C14.8981 40.4127 15.8583 39.9612 16.6856 39.2943C17.089 39.81 17.5198 40.0346 17.9117 40.2431C18.4044 40.5044 18.8856 40.6831 19.3829 40.8023C20.76 41.1554 22.1943 41.2263 23.5996 41.0108C24.2115 40.9123 24.8554 40.7198 25.4971 40.4448C25.52 41.1369 25.5475 41.8152 25.5773 42.5027C25.6644 44.6798 25.7217 46.6896 26.3954 48.4519C26.5031 48.7406 26.7988 50.2233 27.9698 51.5318C29.1385 52.8427 31.4302 53.6585 34.0381 53.1177C35.8783 52.735 38.2204 52.0452 39.7742 49.9002C41.3096 47.7781 42.004 44.7348 42.1415 39.7962C42.1758 39.5304 42.2171 39.3035 42.2606 39.0904L42.6273 39.1225H42.6685C44.6325 39.2096 46.7638 38.9391 48.5444 38.1371C50.121 37.4266 51.3127 36.7116 52.1813 35.4398C52.399 35.1258 52.6373 34.7454 52.7015 34.0877C52.7656 33.4346 52.3806 32.4079 51.7367 31.9358C50.4465 30.9871 49.6375 31.3469 48.769 31.5233C47.9134 31.7066 47.0456 31.8082 46.1656 31.8281C48.6704 27.7398 50.4648 23.3948 51.4892 19.5494C52.0942 17.2806 52.4356 15.1883 52.4631 13.3596C52.4906 11.5308 52.3371 9.9106 51.2073 8.50811C47.6758 4.13102 42.7098 2.92102 38.869 2.87977C38.7498 2.87672 38.6306 2.87595 38.5115 2.87748V2.87061ZM38.4106 4.21581C42.0429 4.18144 46.6858 5.17144 50.0179 9.30331C50.7673 10.2314 50.9896 11.5881 50.9644 13.261C50.9369 14.9316 50.6183 16.93 50.0362 19.1208C48.9065 23.365 46.7706 28.3104 43.7617 32.7516C43.8685 32.8257 43.9839 32.8865 44.1054 32.9327C44.7333 33.1848 46.1633 33.4002 49.021 32.8319C49.7383 32.6829 50.2654 32.5844 50.8108 32.9877C50.9413 33.096 51.045 33.233 51.1138 33.3881C51.1826 33.5431 51.2146 33.712 51.2073 33.8814C51.177 34.1374 51.0798 34.3808 50.9254 34.5873C50.3754 35.3916 49.2846 36.1548 47.8867 36.7827C46.6515 37.3419 44.8777 37.6329 43.3056 37.6512C42.5173 37.6581 41.7908 37.5985 41.1744 37.4129L41.1331 37.3991C40.8948 39.6244 40.3471 44.0221 39.9919 46.0273C39.7054 47.6452 39.2058 48.9308 38.2502 49.8933C37.2969 50.8558 35.9494 51.4356 34.1344 51.8137C31.8863 52.2812 30.2477 51.7771 29.1913 50.9131C28.1371 50.0537 27.6535 48.9102 27.3625 48.2089C27.1631 47.7277 27.06 47.1021 26.9592 46.2656C26.8483 45.2641 26.7741 44.259 26.7369 43.2521C26.6711 41.4868 26.6497 39.7201 26.6727 37.9537C25.7331 38.7856 24.5644 39.3402 23.3108 39.5487C21.8213 39.7939 20.4875 39.5533 19.6923 39.3608C19.3024 39.2647 18.9255 39.1224 18.5694 38.9369C18.1981 38.7466 17.8475 38.5312 17.6138 38.105C17.476 37.8617 17.432 37.5764 17.49 37.3029C17.5651 37.025 17.7313 36.7805 17.9621 36.6085C18.3929 36.2694 18.959 36.0814 19.8138 35.9073C21.3721 35.5979 21.9152 35.3848 22.2452 35.1304C22.5271 34.9127 22.8456 34.4727 23.4094 33.8241L23.4025 33.7394C22.3978 33.7099 21.4129 33.4529 20.5219 32.9877C20.1988 33.3177 18.5396 35.0204 16.516 37.3808C15.6658 38.3685 14.7263 38.9346 13.734 38.9758C12.7417 39.0171 11.8456 38.5312 11.0848 37.8162C9.56084 36.3816 8.34625 33.9135 7.2875 31.1246C6.23334 28.3333 5.37167 25.2258 4.76209 22.5789C4.14792 19.9321 3.78584 17.7985 3.73542 16.7696C3.50625 12.3948 4.56042 9.44769 6.37084 7.58915C8.18125 5.73061 10.6608 5.02477 13.0808 4.89186C17.4213 4.64894 21.544 6.1179 22.3781 6.43415C23.9846 5.3754 26.054 4.7154 28.6413 4.75665C29.8676 4.7737 31.0882 4.92743 32.2804 5.21498L32.324 5.19665C32.8495 5.0179 33.3827 4.86817 33.9235 4.74748C35.3959 4.41515 36.8991 4.23849 38.4083 4.2204L38.4106 4.21581ZM38.7383 5.6229H38.4244C37.1845 5.6396 35.949 5.77466 34.7348 6.02623C37.145 7.07599 39.2627 8.69805 40.904 10.7516C41.8983 11.9802 42.723 13.3368 43.356 14.785C43.5944 15.3396 43.7548 15.8094 43.8442 16.1714C43.89 16.3548 43.9221 16.5083 43.9313 16.6687C43.9397 16.7703 43.9312 16.8725 43.906 16.9712L43.8923 16.9987C43.9588 18.8389 43.489 20.0856 43.4317 21.841C43.3881 23.1152 43.7227 24.6116 43.8052 26.241C43.8831 27.7764 43.6929 29.4608 42.6663 31.1154C42.7518 31.2162 42.8343 31.3171 42.9137 31.4179C45.6294 27.27 47.5888 22.6775 48.6315 18.7656C49.1883 16.6573 49.4862 14.7483 49.5115 13.2358C49.5344 11.7233 49.2433 10.6256 48.8721 10.1696C45.9663 6.56477 42.036 5.64811 38.7383 5.6229ZM28.3685 6.15915C25.8088 6.16373 23.9708 6.9154 22.5798 8.03831C21.1429 9.20019 20.1804 10.7883 19.5479 12.4177C18.9357 14.046 18.5614 15.754 18.4365 17.4891L18.4663 17.4731C19.2385 17.0514 20.2538 16.6321 21.34 16.3891C22.4285 16.1462 23.5996 16.0706 24.6606 16.4694C25.7217 16.8681 26.5994 17.8077 26.9179 19.2331C28.4419 26.076 26.4435 28.6198 25.7056 30.5379C25.4288 31.234 25.1901 31.9447 24.9906 32.6669C25.0823 32.6409 25.1747 32.6225 25.2679 32.6119C25.6705 32.5901 26.0721 32.6688 26.4367 32.841C27.1792 33.1389 27.6879 33.7623 27.9629 34.4773C28.0347 34.6667 28.0859 34.8653 28.1165 35.0731C28.147 35.1602 28.1615 35.2496 28.16 35.3412C28.0776 37.9578 28.0868 40.5765 28.1875 43.1925C28.2379 44.3246 28.3113 45.3191 28.4052 46.1052C28.4969 46.8889 28.6298 47.4848 28.7146 47.6864C28.9896 48.3602 29.3952 49.2402 30.1285 49.8383C30.8619 50.4364 31.9092 50.8329 33.8273 50.4341C35.491 50.0881 36.5177 49.6091 37.2052 48.9148C37.8881 48.225 38.2983 47.2648 38.5596 45.7912C38.9515 43.5844 39.7398 37.1883 39.8338 35.9829C39.7925 35.0777 39.93 34.3787 40.2279 33.8471C40.5373 33.3016 41.014 32.9671 41.4242 32.786C41.6304 32.6944 41.8229 32.6348 41.981 32.5912C41.8125 32.3581 41.6368 32.1304 41.454 31.9083C40.8614 31.2151 40.3755 30.4373 40.0125 29.6006C39.8376 29.2564 39.6519 28.9179 39.4556 28.5854C39.1692 28.0812 38.8048 27.451 38.4244 26.7429C37.6613 25.3244 36.8317 23.6056 36.4008 21.9304C35.9723 20.2598 35.9081 18.5296 37.0081 17.3081C37.9844 16.2241 39.694 15.775 42.2629 16.0271C42.1873 15.8071 42.1415 15.6237 42.0131 15.3304C41.4334 13.9989 40.6756 12.7523 39.7604 11.6248C37.5833 8.92519 34.061 6.24852 28.616 6.16144H28.3685V6.15915ZM13.986 6.26686C13.711 6.26686 13.436 6.27449 13.161 6.28977C10.9748 6.41123 8.90771 7.02769 7.42959 8.54936C5.94688 10.0687 4.97292 12.5621 5.18375 16.6916C5.2273 17.4708 5.57792 19.6616 6.17834 22.2604C6.77875 24.8637 7.63125 27.9231 8.65334 30.625C9.67542 33.3291 10.9175 35.6827 12.0954 36.7964C12.689 37.3533 13.2046 37.5779 13.6721 37.5596C14.1419 37.5366 14.7056 37.2754 15.3977 36.471C16.6581 34.9961 17.965 33.5616 19.3165 32.1696C18.3616 31.3688 17.6265 30.338 17.1806 29.1744C16.7384 28.0218 16.6041 26.7738 16.791 25.5535C17.0133 23.9998 17.0431 22.5469 17.0179 21.401C16.9904 20.2827 16.9079 19.5402 16.9079 19.075V19.0108C16.9056 16.5888 17.3395 14.1862 18.189 11.9181C18.794 10.3552 19.6969 8.76706 21.0513 7.48144C19.7221 7.05748 17.3617 6.41123 14.8065 6.28977C14.5317 6.27506 14.2566 6.26742 13.9815 6.26686H13.986ZM40.8306 17.3631C39.3617 17.3814 38.5367 17.7504 38.1035 18.2316C37.4894 18.9146 37.4321 20.1108 37.8125 21.5866C38.1929 23.0625 38.9744 24.7148 39.7123 26.0852C40.079 26.7727 40.4365 27.3914 40.7252 27.891C41.0163 28.3952 41.2294 28.7527 41.3577 29.0598C41.4799 29.3363 41.6083 29.5891 41.7427 29.8183C42.311 28.6519 42.4142 27.5083 42.3546 26.3144C42.279 24.8385 41.926 23.3283 41.9788 21.7998C42.036 20.0123 42.4004 18.8458 42.4325 17.4639C41.901 17.3992 41.3661 17.3655 40.8306 17.3631ZM23.0015 17.6037C22.5525 17.6071 22.1053 17.6594 21.6677 17.7596C20.7977 17.9647 19.958 18.2821 19.1698 18.7037C18.9055 18.8412 18.6534 19.0009 18.4135 19.1827L18.3677 19.2239C18.3815 19.531 18.4433 20.2758 18.4708 21.3689C18.4938 22.5675 18.4663 24.096 18.2279 25.746C17.71 29.3394 20.3958 32.3139 23.5538 32.3185C23.7371 31.5806 24.0419 30.8335 24.3444 30.0452C25.2244 27.7466 26.9546 26.0714 25.4971 19.5287C25.2588 18.4585 24.7867 18.0254 24.1358 17.7802C23.7714 17.6536 23.3871 17.5939 23.0015 17.6037ZM40.1431 18.0323H40.2531C40.3967 18.0369 40.5266 18.0521 40.6427 18.0781C40.7481 18.0993 40.8489 18.1389 40.9406 18.195C40.9824 18.2196 41.0184 18.2527 41.0465 18.2922C41.0745 18.3317 41.0939 18.3766 41.1033 18.4241V18.4425C41.1093 18.5432 41.082 18.6431 41.0254 18.7266C40.9615 18.8422 40.8812 18.9479 40.7871 19.0406C40.565 19.2763 40.2722 19.4332 39.9529 19.4875C39.64 19.5245 39.3242 19.4472 39.0638 19.2698C38.9589 19.2005 38.8641 19.1173 38.7819 19.0223C38.7124 18.9481 38.6648 18.8561 38.6444 18.7564C38.6394 18.7074 38.645 18.6579 38.6608 18.6113C38.6766 18.5646 38.7023 18.5219 38.736 18.486C38.8093 18.4091 38.8954 18.3455 38.9904 18.2981C39.3534 18.1315 39.7462 18.0395 40.1454 18.0277L40.1431 18.0323ZM23.2123 18.3852C23.3269 18.3852 23.4468 18.3944 23.5721 18.4127C23.9021 18.4585 24.1977 18.5433 24.4223 18.6694C24.5323 18.7259 24.6285 18.8 24.711 18.8916C24.7538 18.9421 24.7859 18.9978 24.8073 19.0589C24.8287 19.12 24.8356 19.1835 24.8279 19.2491C24.8071 19.3707 24.7504 19.4832 24.6652 19.5723C24.5766 19.679 24.4722 19.7717 24.3558 19.8473C24.0712 20.0411 23.726 20.125 23.3842 20.0833C23.0374 20.0273 22.7186 19.8591 22.4767 19.6044C22.3761 19.5018 22.2898 19.3862 22.22 19.2606C22.1486 19.1507 22.1171 19.0197 22.1306 18.8894C22.1627 18.6602 22.3575 18.5456 22.5431 18.4769C22.7577 18.4088 22.983 18.3808 23.2077 18.3944L23.2123 18.3852ZM42.829 33.8127H42.8221C42.5035 33.9273 42.2423 33.9731 42.02 34.0648C41.7986 34.1469 41.615 34.3076 41.5044 34.5162C41.3669 34.7569 41.2523 35.1854 41.2867 35.9141C41.3854 35.9793 41.4936 36.0288 41.6075 36.0608C41.9765 36.1708 42.5975 36.2441 43.2919 36.2327C44.6715 36.2166 46.3719 35.905 47.2748 35.4971C48.015 35.1625 48.7025 34.7271 49.3167 34.2046C46.2985 34.8096 44.5958 34.6491 43.5485 34.2298C43.2902 34.1244 43.048 33.9855 42.829 33.8127ZM25.4398 34.0075H25.394C25.2794 34.0166 25.1121 34.0533 24.7913 34.4016C24.035 35.2221 23.7738 35.7354 23.1504 36.2166C22.5317 36.6979 21.7227 36.9523 20.1094 37.2731C19.5983 37.3739 19.3073 37.4862 19.1102 37.5756C19.1744 37.626 19.1675 37.6398 19.2615 37.6879C19.4975 37.8139 19.8023 37.9239 20.0452 37.9858C20.7396 38.1531 21.8785 38.3502 23.0679 38.1531C24.2573 37.956 25.4925 37.4037 26.5467 35.9691C26.73 35.7216 26.7483 35.355 26.5994 34.9608C26.4458 34.5712 26.1158 34.2321 25.8821 34.1358C25.7426 34.0701 25.5931 34.0282 25.4398 34.0121V34.0075Z" fill="#665900"/>
</svg>
