<svg width="55" height="56" viewBox="0 0 55 56" fill="none" xmlns="http://www.w3.org/2000/svg">
<g clip-path="url(#clip0_109_50)">
<mask id="mask0_109_50" style="mask-type:luminance" maskUnits="userSpaceOnUse" x="0" y="0" width="55" height="56">
<path d="M0 0.5H55V55.5H0V0.5Z" fill="white"/>
</mask>
<g mask="url(#mask0_109_50)">
<path d="M27.3029 0.5C13.3375 0.5 14.2083 6.58667 14.2083 6.58667L14.2244 12.8933H27.5481V14.7862H8.9375C8.9375 14.7862 0 13.7665 0 27.929C0 42.0915 7.79854 41.5873 7.79854 41.5873H12.4506V35.0171C12.4506 35.0171 12.2008 27.1796 20.1277 27.1796H33.3415C33.3415 27.1796 40.7665 27.2987 40.7665 19.9654V7.83792C40.7665 7.83792 41.894 0.5 27.3029 0.5ZM19.9558 4.73958C21.2804 4.73958 22.3529 5.81667 22.3529 7.15042C22.3529 8.48187 21.2804 9.55896 19.9558 9.55896C18.6312 9.55896 17.5587 8.48187 17.5587 7.15042C17.5587 5.81667 18.629 4.73958 19.9558 4.73958Z" fill="#665900"/>
<path d="M27.6994 55.5C41.6602 55.5 40.7894 49.4134 40.7894 49.4134L40.7733 43.1067H27.4496V41.2138H46.0648C46.0648 41.2138 55.0023 42.2336 55.0023 28.0711C55.0023 13.9086 47.2015 14.4127 47.2015 14.4127H42.5494V20.983C42.5494 20.983 42.7992 28.8205 34.8723 28.8205H21.6608C21.6608 28.8205 14.2358 28.7013 14.2358 36.0346V48.1621C14.2358 48.1621 13.1083 55.5 27.6994 55.5ZM35.0465 51.2605C33.7196 51.2605 32.6494 50.1834 32.6494 48.8496C32.6494 47.5182 33.7196 46.4411 35.0465 46.4411C36.371 46.4411 37.4435 47.5182 37.4435 48.8496C37.4435 50.1834 36.371 51.2605 35.0465 51.2605Z" fill="#665900"/>
</g>
</g>
<defs>
<clipPath id="clip0_109_50">
<rect width="55" height="55" fill="white" transform="translate(0 0.5)"/>
</clipPath>
</defs>
</svg>
