<svg width="55" height="56" viewBox="0 0 55 56" fill="none" xmlns="http://www.w3.org/2000/svg">
<path d="M27.5 23.6687C29.8604 23.6687 31.7854 25.5937 31.7854 28C31.7854 30.2916 29.8604 32.2396 27.5 32.2396C25.1396 32.2396 23.2146 30.2916 23.2146 28C23.2146 25.5937 25.1396 23.6687 27.5 23.6687ZM16.8896 46.3333C18.3333 47.2041 21.4958 45.875 25.1396 42.4375C23.9479 41.0854 22.7792 39.6187 21.6792 38.0833C19.8326 37.9053 17.9967 37.6299 16.1792 37.2583C15.0104 42.1625 15.4458 45.5312 16.8896 46.3333ZM18.5167 33.1791L17.8521 32.0104C17.6 32.675 17.3479 33.3396 17.1875 33.9812C17.8063 34.1187 18.4938 34.2333 19.2042 34.3479L18.5167 33.1791ZM33.5042 31.4375L35.3604 28L33.5042 24.5625C32.8167 23.3479 32.0833 22.2708 31.4188 21.1937C30.1813 21.125 28.875 21.125 27.5 21.125C26.125 21.125 24.8188 21.125 23.5813 21.1937C22.9167 22.2708 22.1833 23.3479 21.4958 24.5625L19.6396 28L21.4958 31.4375C22.1833 32.6521 22.9167 33.7291 23.5813 34.8062C24.8188 34.875 26.125 34.875 27.5 34.875C28.875 34.875 30.1813 34.875 31.4188 34.8062C32.0833 33.7291 32.8167 32.6521 33.5042 31.4375ZM27.5 16.0375C27.0646 16.5416 26.6063 17.0687 26.1479 17.6875H28.8521C28.3938 17.0687 27.9354 16.5416 27.5 16.0375ZM27.5 39.9625C27.9354 39.4583 28.3938 38.9312 28.8521 38.3125H26.1479C26.6063 38.9312 27.0646 39.4583 27.5 39.9625ZM38.0875 9.66664C36.6667 8.7958 33.5042 10.125 29.8604 13.5625C31.0521 14.9146 32.2208 16.3812 33.3208 17.9166C35.2 18.1 37.0563 18.375 38.8208 18.7416C39.9896 13.8375 39.5542 10.4687 38.0875 9.66664ZM36.4833 22.8208L37.1479 23.9896C37.4 23.325 37.6521 22.6604 37.8125 22.0187C37.1938 21.8812 36.5063 21.7666 35.7958 21.6521L36.4833 22.8208ZM39.8063 6.66455C43.175 8.58955 43.5417 13.6541 42.1208 19.5666C47.9417 21.2854 52.1354 24.1271 52.1354 28C52.1354 31.8729 47.9417 34.7146 42.1208 36.4333C43.5417 42.3458 43.175 47.4104 39.8063 49.3354C36.4604 51.2604 31.9 49.0604 27.5 44.8666C23.1 49.0604 18.5396 51.2604 15.1708 49.3354C11.825 47.4104 11.4583 42.3458 12.8792 36.4333C7.05834 34.7146 2.86459 31.8729 2.86459 28C2.86459 24.1271 7.05834 21.2854 12.8792 19.5666C11.4583 13.6541 11.825 8.58955 15.1708 6.66455C18.5396 4.73955 23.1 6.93955 27.5 11.1333C31.9 6.93955 36.4604 4.73955 39.8063 6.66455ZM39.1417 28C39.9208 29.7187 40.6083 31.4375 41.1813 33.1791C45.9938 31.7354 48.6979 29.6729 48.6979 28C48.6979 26.3271 45.9938 24.2646 41.1813 22.8208C40.6083 24.5625 39.9208 26.2812 39.1417 28ZM15.8583 28C15.0792 26.2812 14.3917 24.5625 13.8188 22.8208C9.00626 24.2646 6.30209 26.3271 6.30209 28C6.30209 29.6729 9.00626 31.7354 13.8188 33.1791C14.3917 31.4375 15.0792 29.7187 15.8583 28ZM36.4833 33.1791L35.7958 34.3479C36.5063 34.2333 37.1938 34.1187 37.8125 33.9812C37.6521 33.3396 37.4 32.675 37.1479 32.0104L36.4833 33.1791ZM29.8604 42.4375C33.5042 45.875 36.6667 47.2041 38.0875 46.3333C39.5542 45.5312 39.9896 42.1625 38.8208 37.2583C37.0563 37.625 35.2 37.9 33.3208 38.0833C32.2208 39.6187 31.0521 41.0854 29.8604 42.4375ZM18.5167 22.8208L19.2042 21.6521C18.4938 21.7666 17.8063 21.8812 17.1875 22.0187C17.3479 22.6604 17.6 23.325 17.8521 23.9896L18.5167 22.8208ZM25.1396 13.5625C21.4958 10.125 18.3333 8.7958 16.8896 9.66664C15.4458 10.4687 15.0104 13.8375 16.1792 18.7416C17.9967 18.37 19.8326 18.0947 21.6792 17.9166C22.7792 16.3812 23.9479 14.9146 25.1396 13.5625Z" fill="#665900"/>
</svg>
