<svg width="55" height="56" viewBox="0 0 55 56" fill="none" xmlns="http://www.w3.org/2000/svg">
<g clip-path="url(#clip0_109_85)">
<path d="M43.426 26.8072C43.426 23.8922 42.3775 21.8744 41.4803 20.3035L41.2053 19.8566C40.1156 18.1035 39.1635 16.5635 39.1635 14.7691C39.1635 12.6035 40.8066 10.5822 43.1235 10.5822C43.1922 10.5822 43.2587 10.5856 43.3228 10.5925L43.4294 10.6028C39.0846 6.61296 33.3988 4.40197 27.5 4.40846C23.5907 4.40799 19.7426 5.37943 16.302 7.23536C12.8614 9.09129 9.93608 11.7735 7.78939 15.0406C8.33939 15.0578 8.86533 15.0716 9.30877 15.0716C11.7735 15.0716 15.5925 14.7725 15.5925 14.7725C16.8644 14.6969 17.0156 16.5635 15.7438 16.7147C15.7438 16.7147 14.4685 16.866 13.0453 16.9381L21.6391 42.4925L26.7953 27.0031L23.1172 16.9347C21.8488 16.8591 20.6456 16.7113 20.6456 16.7113C19.3738 16.6356 19.525 14.69 20.7935 14.7656C20.7935 14.7656 24.6916 15.0647 27.0085 15.0647C29.4766 15.0647 33.2991 14.7656 33.2991 14.7656C34.571 14.69 34.7188 16.56 33.4469 16.7113C33.4469 16.7113 32.1681 16.8591 30.7485 16.9347L39.2735 42.2931L41.6247 34.4316L41.8103 33.8369C42.7385 30.8806 43.4225 28.6978 43.4225 26.8038L43.426 26.8072ZM3.90846 28C3.9066 32.4304 5.15288 36.7717 7.50449 40.5265C9.8561 44.2813 13.2179 47.2977 17.2047 49.23L5.94689 18.3956C4.59513 21.4167 3.90033 24.6904 3.90846 28Z" fill="#665900"/>
<path d="M20.8347 50.629L27.916 30.0625L35.1657 49.9312C35.2115 50.0458 35.2676 50.1535 35.3341 50.2544C30.6608 51.9018 25.5869 52.0329 20.8347 50.629ZM48.1972 16.6803C48.3026 17.432 48.3565 18.2409 48.3588 19.1072C48.3588 21.4997 47.9119 24.1912 46.5644 27.5565L39.3594 48.3878C44.6762 45.2987 48.5761 40.255 50.2277 34.3319C51.8793 28.4088 51.1519 22.0748 48.2007 16.6803H48.1972Z" fill="#665900"/>
<path fill-rule="evenodd" clip-rule="evenodd" d="M0 28C0 12.8372 12.3372 0.5 27.5 0.5C42.6628 0.5 55 12.8372 55 28C55 43.1628 42.6594 55.5 27.5 55.5C12.3406 55.5 0 43.1628 0 28ZM1.26156 28C1.26156 42.4684 13.0316 54.2384 27.5 54.2384C41.9684 54.2384 53.735 42.4684 53.735 28C53.735 13.5281 41.965 1.76156 27.5 1.76156C13.0281 1.76156 1.26156 13.5281 1.26156 28Z" fill="#665900"/>
</g>
<defs>
<clipPath id="clip0_109_85">
<rect width="55" height="55" fill="white" transform="translate(0 0.5)"/>
</clipPath>
</defs>
</svg>
