<svg width="40" height="40" viewBox="0 0 40 40" fill="none" xmlns="http://www.w3.org/2000/svg">
<g id="Logo 28">
<path id="Vector" d="M38.7044 16.7341H33.1152C32.6691 16.7341 32.3149 16.3802 32.3149 15.9344V10.3625C32.3149 9.99537 32.0262 9.70694 31.6589 9.70694H26.0697C25.6236 9.70694 25.2694 9.35296 25.2694 8.9072L25.2431 4.88229C25.2431 4.5152 25.0201 4.18744 24.6921 4.04322C22.5141 3.1386 20.1919 2.66663 17.7909 2.66663C7.97704 2.66663 0 10.6378 0 20.4444C0 30.251 7.97704 38.2222 17.7909 38.2222C20.1919 38.2222 22.501 37.7502 24.6921 36.8325C25.0332 36.6883 25.2431 36.3605 25.2431 35.9934L25.2694 31.6932C25.2694 31.2474 25.6236 30.8934 26.0697 30.8934H31.6589C32.0262 30.8934 32.3149 30.605 32.3149 30.2379V24.6529C32.3149 24.2071 32.6691 23.8531 33.1152 23.8531H38.7044C39.0718 23.8531 39.3604 23.5647 39.3604 23.1976V17.3634C39.3604 17.0226 39.0718 16.7341 38.7044 16.7341ZM17.3317 23.7745H12.0049C11.5588 23.7745 11.2046 23.4205 11.2046 22.9747V17.6388C11.2046 17.193 11.5588 16.839 12.0049 16.839H17.3448C17.7909 16.839 18.1451 17.193 18.1451 17.6388V22.9747C18.132 23.4074 17.7778 23.7745 17.3317 23.7745ZM24.3772 16.7341H19.0373C18.5912 16.7341 18.237 16.3802 18.237 15.9344V10.6116C18.237 10.1658 18.5912 9.81182 19.0373 9.81182H24.3772C24.8233 9.81182 25.1775 10.1658 25.1775 10.6116V15.9475C25.1644 16.3802 24.8102 16.7341 24.3772 16.7341ZM19.0373 23.8793H24.3772C24.8233 23.8793 25.1775 24.2333 25.1775 24.6791V30.015C25.1775 30.4608 24.8233 30.8148 24.3772 30.8148H19.0373C18.5912 30.8148 18.237 30.4608 18.237 30.015V24.6791C18.237 24.2333 18.6043 23.8793 19.0373 23.8793ZM26.0828 16.8521H31.4227C31.8688 16.8521 32.223 17.2061 32.223 17.6519V22.9878C32.223 23.4336 31.8688 23.7876 31.4227 23.7876H26.0828C25.6367 23.7876 25.2825 23.4336 25.2825 22.9878V17.6519C25.2825 17.2061 25.6367 16.8521 26.0828 16.8521Z" fill="#006609"/>
</g>
</svg>
