<svg width="40" height="40" viewBox="0 0 40 40" fill="none" xmlns="http://www.w3.org/2000/svg">
<g id="Logo 14" clip-path="url(#clip0_85_272)">
<path id="Vector" d="M28.3871 0.0128915C26.9419 0.129021 25.5871 1.45805 25.4451 2.90321C25.4193 3.10967 25.4193 3.32902 25.4451 3.52257C25.5484 4.64515 25.1226 5.75483 24.3097 6.54192L24.129 6.70967C23.7419 7.08386 22.929 7.31612 22.129 7.45805C20.7226 7.70321 19.2774 7.70321 17.871 7.45805C17.071 7.31612 16.258 7.08386 15.871 6.70967L15.7032 6.54192C14.8903 5.75483 14.4645 4.64515 14.5677 3.52257C14.5806 3.31612 14.5806 3.10967 14.5677 2.90321C14.4258 1.45805 13.071 0.129021 11.6129 0.0128915C9.62579 -0.141947 7.98708 1.49676 8.14192 3.48386C8.27095 5.04515 9.52257 6.30967 11.0839 6.4387C11.2903 6.4516 11.4968 6.4516 11.6903 6.4387C12.8387 6.32257 13.9871 6.67096 14.8129 7.48386L14.9677 7.6387C15.858 8.50321 16.2451 9.76773 16.0516 10.9935C16 11.2903 15.9871 11.6 16.0129 11.9226C16.1548 13.8839 17.7548 15.4839 19.7161 15.6129C22.0516 15.7677 24 13.9226 24 11.6258C24 11.3935 23.9742 11.1613 23.9355 10.9419C23.729 9.72902 24.1548 8.49031 25.0451 7.62579L25.1871 7.48386C26.0129 6.68386 27.1613 6.32257 28.3097 6.4387C28.5032 6.4645 28.7097 6.4645 28.9161 6.4387C30.4774 6.30967 31.729 5.04515 31.858 3.48386C32.0129 1.49676 30.3742 -0.141947 28.3871 0.0128915Z" fill="#665900"/>
<path id="Vector_2" d="M0.0128915 11.6129C0.129021 13.058 1.45805 14.4129 2.90321 14.5548C3.10967 14.5806 3.32902 14.5806 3.52257 14.5548C4.64515 14.4516 5.75483 14.8774 6.54192 15.6903L6.70967 15.871C7.08386 16.258 7.31612 17.071 7.45805 17.871C7.70321 19.2774 7.70321 20.7226 7.45805 22.129C7.31612 22.929 7.08386 23.7419 6.70967 24.129L6.54192 24.2968C5.75483 25.1097 4.64515 25.5355 3.52257 25.4322C3.31612 25.4193 3.10967 25.4193 2.90321 25.4322C1.45805 25.5742 0.129021 26.929 0.0128915 28.3871C-0.141947 30.3742 1.49676 32.0258 3.49676 31.858C5.05805 31.729 6.32257 30.4774 6.4516 28.9161C6.4645 28.7097 6.4645 28.5032 6.4516 28.3097C6.33547 27.1613 6.68386 26.0129 7.49676 25.1871L7.6516 25.0322C8.51612 24.1419 9.78063 23.7548 11.0064 23.9484C11.3032 24 11.6129 24.0129 11.9355 23.9871C13.8968 23.8451 15.4968 22.2451 15.6258 20.2839C15.7806 17.9484 13.9355 16 11.6387 16C11.4064 16 11.1742 16.0258 10.9548 16.0645C9.74192 16.271 8.50321 15.8451 7.6387 14.9548L7.49676 14.8129C6.69676 13.9871 6.33547 12.8387 6.4516 11.6903C6.47741 11.4968 6.47741 11.2903 6.4516 11.0839C6.30967 9.52257 5.04515 8.25805 3.48386 8.14192C1.49676 7.98708 -0.141947 9.62579 0.0128915 11.6129Z" fill="#665900"/>
<path id="Vector_3" d="M11.6129 39.9871C13.0581 39.871 14.4129 38.5419 14.5549 37.0968C14.5807 36.8903 14.5807 36.671 14.5549 36.4774C14.4516 35.3548 14.8774 34.2452 15.6903 33.4581L15.8581 33.2903C16.2452 32.9161 17.0581 32.6839 17.8581 32.5419C19.2645 32.2968 20.7097 32.2968 22.1161 32.5419C22.9161 32.6839 23.729 32.9161 24.1161 33.2903L24.2839 33.4581C25.0968 34.2452 25.5226 35.3548 25.4194 36.4774C25.4065 36.6839 25.4065 36.8903 25.4194 37.0968C25.5613 38.5419 26.9161 39.871 28.3613 39.9871C30.3484 40.1419 32 38.5032 31.8323 36.5032C31.7032 34.9419 30.4516 33.6774 28.8903 33.5484C28.6839 33.5355 28.4774 33.5355 28.2839 33.5484C27.1355 33.6645 25.9871 33.3161 25.1613 32.5032L25.0065 32.3484C24.1161 31.4839 23.729 30.2194 23.9226 28.9935C23.9742 28.6968 23.9871 28.3871 23.9613 28.0645C23.8194 26.1032 22.2194 24.5032 20.2581 24.3742C17.9226 24.2194 15.9742 26.0645 15.9742 28.3613C15.9742 28.5936 16 28.8258 16.0387 29.0452C16.2452 30.2581 15.8194 31.4968 14.929 32.3613L14.7871 32.5032C13.9613 33.3032 12.8129 33.6645 11.6645 33.5484C11.471 33.5226 11.2645 33.5226 11.0581 33.5484C9.49679 33.6774 8.24518 34.9419 8.11614 36.5032C7.98711 38.5032 9.62582 40.1419 11.6129 39.9871Z" fill="#665900"/>
<path id="Vector_4" d="M39.9871 28.3871C39.871 26.9419 38.5419 25.5871 37.0968 25.4451C36.8903 25.4193 36.671 25.4193 36.4774 25.4451C35.3548 25.5484 34.2452 25.1226 33.4581 24.3097L33.2903 24.129C32.9161 23.7419 32.6839 22.929 32.5419 22.129C32.2968 20.7226 32.2968 19.2774 32.5419 17.8709C32.6839 17.0709 32.9161 16.258 33.2903 15.8709L33.4581 15.7032C34.2452 14.8903 35.3548 14.4645 36.4774 14.5677C36.6839 14.5806 36.8903 14.5806 37.0968 14.5677C38.5419 14.4258 39.871 13.0709 39.9871 11.6258C40.1419 9.63869 38.5032 7.98707 36.5032 8.15482C34.9419 8.28385 33.6774 9.53546 33.5484 11.0968C33.5355 11.3032 33.5355 11.5097 33.5484 11.7032C33.6645 12.8516 33.3161 14 32.5032 14.8258L32.3484 14.9806C31.4839 15.8709 30.2194 16.258 28.9935 16.0645C28.6968 16.0129 28.3871 16 28.0645 16.0258C26.1032 16.1677 24.5032 17.7677 24.3742 19.729C24.2194 22.0645 26.0645 24.0129 28.3613 24.0129C28.5936 24.0129 28.8258 23.9871 29.0452 23.9484C30.2581 23.7419 31.4968 24.1677 32.3613 25.058L32.5032 25.2C33.3032 26.0258 33.6645 27.1742 33.5484 28.3226C33.5226 28.5161 33.5226 28.7226 33.5484 28.929C33.6774 30.4903 34.9419 31.7419 36.5032 31.8709C38.5032 32.0129 40.1419 30.3742 39.9871 28.3871Z" fill="#665900"/>
<g id="Group">
<path id="Vector_5" d="M11.3548 13.9355C12.7801 13.9355 13.9355 12.7801 13.9355 11.3548C13.9355 9.92956 12.7801 8.77417 11.3548 8.77417C9.92956 8.77417 8.77417 9.92956 8.77417 11.3548C8.77417 12.7801 9.92956 13.9355 11.3548 13.9355Z" fill="#665900"/>
</g>
<g id="Group_2">
<path id="Vector_6" d="M11.3548 31.2258C12.7801 31.2258 13.9355 30.0704 13.9355 28.6452C13.9355 27.2199 12.7801 26.0645 11.3548 26.0645C9.92956 26.0645 8.77417 27.2199 8.77417 28.6452C8.77417 30.0704 9.92956 31.2258 11.3548 31.2258Z" fill="#665900"/>
</g>
<g id="Group_3">
<path id="Vector_7" d="M28.6452 31.2258C30.0704 31.2258 31.2258 30.0704 31.2258 28.6452C31.2258 27.2199 30.0704 26.0645 28.6452 26.0645C27.2199 26.0645 26.0645 27.2199 26.0645 28.6452C26.0645 30.0704 27.2199 31.2258 28.6452 31.2258Z" fill="#665900"/>
</g>
<g id="Group_4">
<path id="Vector_8" d="M28.6452 13.9355C30.0704 13.9355 31.2258 12.7801 31.2258 11.3548C31.2258 9.92956 30.0704 8.77417 28.6452 8.77417C27.2199 8.77417 26.0645 9.92956 26.0645 11.3548C26.0645 12.7801 27.2199 13.9355 28.6452 13.9355Z" fill="#665900"/>
</g>
<g id="Group_5">
<path id="Vector_9" d="M20 22.5807C21.4253 22.5807 22.5807 21.4253 22.5807 20C22.5807 18.5748 21.4253 17.4194 20 17.4194C18.5748 17.4194 17.4194 18.5748 17.4194 20C17.4194 21.4253 18.5748 22.5807 20 22.5807Z" fill="#665900"/>
</g>
</g>
<defs>
<clipPath id="clip0_85_272">
<rect width="40" height="40" fill="white"/>
</clipPath>
</defs>
</svg>
