<svg width="41" height="40" viewBox="0 0 41 40" fill="none" xmlns="http://www.w3.org/2000/svg">
<g id="Logo 20" clip-path="url(#clip0_85_263)">
<g id="Group">
<path id="Vector" d="M29.4227 33.0442L31.2007 36.0936C31.4247 36.4713 31.9707 36.4713 32.1807 36.0936L33.9447 33.0302L41.0707 20.7064C41.3227 20.2727 41.3227 19.7272 41.0707 19.2795L33.9447 6.95574L32.1807 3.89227C31.9567 3.51459 31.4107 3.51459 31.2007 3.89227L29.4227 6.94175L27.2387 10.6767L22.2267 19.2935C21.9747 19.7412 21.9747 20.2867 22.2267 20.7204L27.2387 29.3092L29.4227 33.0442ZM32.2087 19.2935L29.8287 15.1809C29.6187 14.8312 29.6187 14.3976 29.8287 14.0339L31.2987 11.502C31.4667 11.2222 31.8727 11.2222 32.0407 11.502L36.6187 19.4334C36.8287 19.7831 36.8287 20.2168 36.6187 20.5665L32.0407 28.4979C31.8727 28.7777 31.4667 28.7777 31.2987 28.4979L29.8287 25.966C29.6187 25.6163 29.6187 25.1827 29.8287 24.819L32.2087 20.7064C32.4607 20.2727 32.4607 19.7272 32.2087 19.2935Z" fill="#006609"/>
<path id="Vector_2" d="M23.8367 8.73231L26.0347 4.98341L27.8267 1.91994C28.0507 1.54226 27.7707 1.06665 27.3367 1.06665H23.7807H9.4867C8.9827 1.06665 8.5067 1.33243 8.2547 1.78006L1.1147 14.1318L-0.649296 17.1953C-0.873296 17.573 -0.593296 18.0486 -0.159296 18.0486H3.3827H7.7227H13.8687H17.5927C18.0967 18.0486 18.5727 17.7828 18.8247 17.3492L19.5387 16.1182L23.8367 8.73231ZM6.0147 13.4884L10.5927 5.55693C10.8027 5.20722 11.1667 4.98341 11.5727 4.98341H20.7427C21.0787 4.98341 21.2747 5.33312 21.1067 5.62688L19.6227 8.17277C19.4127 8.52248 19.0487 8.73231 18.6427 8.73231H13.9107C13.4067 8.73231 12.9307 8.99809 12.6787 9.44572L10.3127 13.5583C10.1027 13.908 9.7387 14.1318 9.3327 14.1318H6.3927C6.0567 14.1178 5.8467 13.7681 6.0147 13.4884Z" fill="#006609"/>
<path id="Vector_3" d="M26.0347 35.0165L23.8507 31.2676L19.5527 23.8957L18.8387 22.6648C18.5867 22.2311 18.1107 21.9653 17.6067 21.9653H13.8827H7.7227H3.3827H-0.159296C-0.593296 21.9653 -0.873296 22.4409 -0.649296 22.8186L1.1287 25.8821L8.26871 38.2339C8.52071 38.6675 8.99671 38.9473 9.5007 38.9473H23.7947H27.3507C27.7847 38.9473 28.0647 38.4717 27.8407 38.094L26.0347 35.0165ZM10.5927 34.457L6.0147 26.5256C5.8467 26.2458 6.0567 25.8821 6.3787 25.8821H9.31871C9.72471 25.8821 10.1027 26.0919 10.2987 26.4556L12.6647 30.5682C12.9167 31.0019 13.3927 31.2816 13.8967 31.2816H18.6287C19.0347 31.2816 19.4127 31.4914 19.6087 31.8412L21.0927 34.3871C21.2607 34.6668 21.0507 35.0305 20.7287 35.0305H11.5867C11.1807 35.0165 10.8027 34.8067 10.5927 34.457Z" fill="#006609"/>
</g>
</g>
<defs>
<clipPath id="clip0_85_263">
<rect width="40" height="40" fill="white" transform="translate(0.333374)"/>
</clipPath>
</defs>
</svg>
