<svg width="41" height="40" viewBox="0 0 41 40" fill="none" xmlns="http://www.w3.org/2000/svg">
<g id="Logo 23" clip-path="url(#clip0_85_257)">
<path id="Vector" d="M20.6667 13.2C24.3117 13.2 27.2667 10.2451 27.2667 6.6C27.2667 2.95492 24.3117 0 20.6667 0C17.0216 0 14.0667 2.95492 14.0667 6.6C14.0667 10.2451 17.0216 13.2 20.6667 13.2Z" fill="#0033E5"/>
<path id="Vector_2" d="M27.48 19.6C27.4667 19.7467 27.4667 19.9067 27.4667 20.0534C27.48 21.7867 26.84 23.4534 25.6133 24.68L25.3333 24.96C24.12 26.1734 22.4667 26.8267 20.7467 26.8134C20.72 26.8134 20.68 26.8134 20.6533 26.8134C20.6267 26.8134 20.5867 26.8134 20.56 26.8134C18.84 26.84 17.1867 26.1734 15.9733 24.96L15.6933 24.68C14.4667 23.4534 13.8267 21.7867 13.84 20.0534C13.84 19.9067 13.84 19.7467 13.8267 19.6C13.64 16.3467 11.0533 13.6934 7.79999 13.4267C3.70666 13.08 0.319992 16.48 0.653326 20.5734C0.919993 23.8134 3.58666 26.4 6.82666 26.6C6.97333 26.6134 7.13333 26.6134 7.27999 26.6134C9.01333 26.6 10.68 27.24 11.9067 28.4667L12.1867 28.7467C13.4133 29.9734 14.0533 31.64 14.04 33.3734C14.04 33.6 14.0533 33.8267 14.0667 34.0534C14.36 37.24 16.9733 39.7867 20.1733 40.0134C24.0267 40.28 27.24 37.2267 27.24 33.4267C27.24 33.4 27.24 33.36 27.24 33.3334C27.2133 31.6134 27.88 29.96 29.0933 28.7467L29.3733 28.4667C30.6 27.24 32.2667 26.6 34 26.6134C34.1467 26.6134 34.2933 26.6134 34.4533 26.6C37.7067 26.4134 40.36 23.8267 40.6267 20.5734C40.9733 16.48 37.5733 13.0934 33.48 13.4267C30.2533 13.6934 27.6667 16.36 27.48 19.6Z" fill="#0033E5"/>
</g>
<defs>
<clipPath id="clip0_85_257">
<rect width="40" height="40" fill="white" transform="translate(0.666656)"/>
</clipPath>
</defs>
</svg>
