<svg width="41" height="40" viewBox="0 0 41 40" fill="none" xmlns="http://www.w3.org/2000/svg">
<g id="Logo 19" clip-path="url(#clip0_85_290)">
<g id="Group">
<path id="Vector" d="M28.1467 15.8171L21.52 10.4102C21.0267 10.0067 20.3067 10.0067 19.8133 10.4102L13.1867 15.8171C12.92 16.0323 12.92 16.4492 13.1867 16.6644L15.2667 18.3591C15.56 18.6012 15.9867 18.6012 16.2933 18.3591L20.6667 14.7949L25.04 18.3726C25.3333 18.6147 25.76 18.6147 26.0667 18.3726L28.1467 16.6779C28.4133 16.4492 28.4133 16.0457 28.1467 15.8171Z" fill="#006609"/>
<path id="Vector_2" d="M34.7867 21.2508L40.4667 16.6241C40.7333 16.4089 40.7333 15.9919 40.4667 15.7767L21.52 0.309337C21.0267 -0.0941604 20.3067 -0.0941604 19.8133 0.309337L0.866657 15.7633C0.59999 15.9785 0.59999 16.3954 0.866657 16.6106L6.54666 21.2508L0.866657 25.8776C0.59999 26.0928 0.59999 26.5097 0.866657 26.7249L17 39.8789C17.36 40.1614 17.88 39.9193 17.88 39.4485V26.0659C17.88 25.6489 17.6933 25.2589 17.3733 25.0033L12.76 21.2374L9.65332 18.7088L6.95999 16.503C6.75999 16.3416 6.75999 16.0323 6.95999 15.8709L20.16 5.0975C20.4533 4.8554 20.88 4.8554 21.1867 5.0975L34.3867 15.8709C34.5867 16.0323 34.5867 16.3416 34.3867 16.503L31.6933 18.7088L28.5733 21.2508L23.96 25.0168C23.64 25.2723 23.4533 25.6624 23.4533 26.0793V39.462C23.4533 39.9193 23.9867 40.1748 24.3333 39.8924L40.4667 26.7384C40.7333 26.5232 40.7333 26.1062 40.4667 25.891L34.7867 21.2508ZM9.90666 23.9946L13.68 27.0746C13.8667 27.236 13.9867 27.4647 13.9867 27.7068V31.7821C13.9867 32.0107 13.72 32.1452 13.5467 31.9973L6.94666 26.6173C6.74666 26.4559 6.74666 26.1466 6.94666 25.9852L9.38666 23.9946C9.54666 23.8601 9.75999 23.8601 9.90666 23.9946ZM27.3467 31.7821V27.7068C27.3467 27.4647 27.4533 27.2226 27.6533 27.0746L31.4267 23.9946C31.5733 23.8736 31.7867 23.8736 31.9333 23.9946L34.3733 25.9852C34.5733 26.1466 34.5733 26.4559 34.3733 26.6173L27.7733 31.9973C27.6133 32.1452 27.3467 32.0242 27.3467 31.7821Z" fill="#006609"/>
</g>
</g>
<defs>
<clipPath id="clip0_85_290">
<rect width="40" height="40" fill="white" transform="translate(0.666656)"/>
</clipPath>
</defs>
</svg>
