<svg width="32" height="32" viewBox="0 0 32 32" fill="none" xmlns="http://www.w3.org/2000/svg">
<rect x="0.375" y="0.375" width="31.25" height="31.25" rx="15.625" stroke="#F0F7FF" stroke-width="0.75"/>
<path d="M20.765 20.235C20.8018 20.2693 20.8314 20.3107 20.8519 20.3567C20.8724 20.4027 20.8834 20.4524 20.8843 20.5027C20.8852 20.5531 20.8759 20.6031 20.857 20.6498C20.8382 20.6965 20.8101 20.7389 20.7745 20.7745C20.7389 20.8101 20.6965 20.8382 20.6498 20.857C20.6031 20.8759 20.5531 20.8852 20.5027 20.8843C20.4524 20.8834 20.4027 20.8724 20.3567 20.8519C20.3107 20.8314 20.2693 20.8018 20.235 20.765L16 16.5306L11.765 20.765C11.6939 20.8312 11.5999 20.8673 11.5027 20.8656C11.4056 20.8639 11.3129 20.8245 11.2442 20.7558C11.1755 20.6871 11.1361 20.5944 11.1344 20.4972C11.1327 20.4001 11.1687 20.3061 11.235 20.235L15.4694 16L11.235 11.765C11.1687 11.6939 11.1327 11.5999 11.1344 11.5027C11.1361 11.4056 11.1755 11.3129 11.2442 11.2442C11.3129 11.1755 11.4056 11.1361 11.5027 11.1344C11.5999 11.1327 11.6939 11.1687 11.765 11.235L16 15.4694L20.235 11.235C20.3061 11.1687 20.4001 11.1327 20.4972 11.1344C20.5944 11.1361 20.6871 11.1755 20.7558 11.2442C20.8245 11.3129 20.8639 11.4056 20.8656 11.5027C20.8673 11.5999 20.8312 11.6939 20.765 11.765L16.5306 16L20.765 20.235Z" fill="#F0F7FF"/>
</svg>
