<svg width="32" height="32" viewBox="0 0 32 32" fill="none" xmlns="http://www.w3.org/2000/svg">
<rect x="0.375" y="0.375" width="31.25" height="31.25" rx="15.625" stroke="#F0F7FF" stroke-width="0.75"/>
<path d="M21.875 16C21.875 16.0995 21.8355 16.1948 21.7652 16.2652C21.6948 16.3355 21.5995 16.375 21.5 16.375H16.375V21.5C16.375 21.5995 16.3355 21.6948 16.2652 21.7652C16.1948 21.8355 16.0995 21.875 16 21.875C15.9005 21.875 15.8052 21.8355 15.7348 21.7652C15.6645 21.6948 15.625 21.5995 15.625 21.5V16.375H10.5C10.4005 16.375 10.3052 16.3355 10.2348 16.2652C10.1645 16.1948 10.125 16.0995 10.125 16C10.125 15.9005 10.1645 15.8052 10.2348 15.7348C10.3052 15.6645 10.4005 15.625 10.5 15.625H15.625V10.5C15.625 10.4005 15.6645 10.3052 15.7348 10.2348C15.8052 10.1645 15.9005 10.125 16 10.125C16.0995 10.125 16.1948 10.1645 16.2652 10.2348C16.3355 10.3052 16.375 10.4005 16.375 10.5V15.625H21.5C21.5995 15.625 21.6948 15.6645 21.7652 15.7348C21.8355 15.8052 21.875 15.9005 21.875 16Z" fill="#F0F7FF"/>
</svg>
