<svg width="508" height="311" viewBox="0 0 508 311" fill="none" xmlns="http://www.w3.org/2000/svg">
<path d="M445.367 241.328C302.441 300.164 91.841 313.211 24.5168 247.184C-53.2456 170.935 69.0115 78.3739 181.257 121.338C255.851 149.881 353.636 145.152 415.527 137.196C520.452 123.696 542.506 201.344 445.367 241.328Z" fill="url(#paint0_radial_9_68)"/>
<path d="M181.901 49.6142L180.391 51.7183L181.442 52.4744L182.951 50.3703L181.901 49.6142Z" fill="#908D89"/>
<path d="M240.691 95.0619L238.493 93.4812L239.993 91.3823L242.192 92.963L240.691 95.0619ZM234.108 90.3328L231.909 88.7521L233.422 86.6531L235.621 88.2338L234.108 90.3328ZM227.524 85.6037L225.325 84.023L226.826 81.924L229.025 83.5047L227.524 85.6037ZM220.94 80.8745L218.742 79.2938L220.255 77.1949L222.454 78.7756L220.94 80.8745ZM214.37 76.1325L212.171 74.5518L213.671 72.4528L215.87 74.0335L214.37 76.1325ZM207.786 71.4033L205.587 69.8226L207.101 67.7237L209.299 69.3044L207.786 71.4033ZM201.202 66.6742L199.004 65.0935L200.504 62.9946L202.703 64.5752L201.202 66.6742ZM194.619 61.9451L192.42 60.3644L193.933 58.2654L196.132 59.8461L194.619 61.9451ZM188.035 57.203L185.836 55.6223L187.337 53.5233L189.535 55.104L188.035 57.203Z" fill="#908D89"/>
<path d="M246.596 96.1139L245.087 98.2194L246.138 98.9747L247.647 96.8693L246.596 96.1139Z" fill="#908D89"/>
<path d="M275.447 84.4765L272.86 84.3469L272.989 81.7556L275.576 81.8852L275.447 84.4765ZM275.822 76.7025L273.235 76.573L273.364 73.9817L275.951 74.1112L275.822 76.7025ZM276.197 68.9416L273.61 68.812L273.739 66.2207L276.326 66.3503L276.197 68.9416Z" fill="#908D89"/>
<path d="M309.775 85.3316L308.197 83.2844L310.24 81.7038L311.818 83.7509L309.775 85.3316ZM315.919 80.5895L314.341 78.5424L316.384 76.9617L317.962 79.0088L315.919 80.5895ZM322.063 75.8474L320.485 73.8003L322.541 72.2196L324.119 74.2667L322.063 75.8474ZM328.219 71.1053L326.641 69.0582L328.685 67.4775L330.263 69.5246L328.219 71.1053ZM334.363 66.3632L332.785 64.3161L334.829 62.7354L336.407 64.7825L334.363 66.3632ZM340.507 61.6212L338.929 59.574L340.986 57.9933L342.564 60.0405L340.507 61.6212ZM346.664 56.8791L345.086 54.8319L347.13 53.2513L348.708 55.2984L346.664 56.8791Z" fill="#908D89"/>
<path d="M312.31 110.985L311.806 108.446L314.341 107.941L314.845 110.48L312.31 110.985ZM319.915 109.483L319.411 106.943L321.946 106.438L322.451 108.977L319.915 109.483ZM327.534 107.967L327.029 105.427L329.565 104.922L330.069 107.461L327.534 107.967ZM335.139 106.464L334.635 103.924L337.17 103.419L337.675 105.958L335.139 106.464ZM342.758 104.948L342.253 102.408L344.789 101.903L345.293 104.442L342.758 104.948ZM350.376 103.445L349.872 100.905L352.407 100.4L352.911 102.939L350.376 103.445ZM357.982 101.929L357.477 99.3894L360.012 98.8841L360.517 101.424L357.982 101.929ZM365.6 100.426L365.096 97.8864L367.631 97.3811L368.135 99.9206L365.6 100.426ZM373.219 98.91L372.714 96.3705L375.249 95.8652L375.754 98.4047L373.219 98.91ZM380.824 97.3941L380.32 94.8546L382.855 94.3493L383.359 96.8888L380.824 97.3941ZM388.443 95.8911L387.938 93.3517L390.473 92.8464L390.978 95.3858L388.443 95.8911ZM396.048 94.3752L395.544 91.8357L398.079 91.3304L398.583 93.8699L396.048 94.3752ZM403.666 92.8723L403.162 90.3328L405.697 89.8275L406.202 92.367L403.666 92.8723ZM411.272 91.3564L410.768 88.8169L413.303 88.3116L413.807 90.8511L411.272 91.3564ZM418.89 89.8534L418.386 87.3139L420.921 86.8086L421.426 89.3481L418.89 89.8534Z" fill="#908D89"/>
<path d="M244.223 112.411L241.881 111.776L242.554 109.275L244.895 109.91L244.223 112.411ZM236.889 110.428L234.392 109.755L235.065 107.254L237.561 107.928L236.889 110.428ZM229.4 108.394L226.903 107.72L227.576 105.22L230.072 105.894L229.4 108.394ZM221.911 106.36L219.414 105.686L220.087 103.186L222.583 103.859L221.911 106.36ZM214.421 104.326L211.925 103.652L212.598 101.151L215.094 101.825L214.421 104.326ZM206.932 102.292L204.436 101.618L205.109 99.1173L207.605 99.791L206.932 102.292ZM199.43 100.257L196.934 99.5837L197.607 97.0831L200.103 97.7569L199.43 100.257ZM191.941 98.2233L189.445 97.5496L190.117 95.049L192.614 95.7227L191.941 98.2233ZM184.452 96.1891L181.956 95.5154L182.628 93.0148L185.125 93.6885L184.452 96.1891ZM176.963 94.155L174.467 93.4812L175.139 90.9806L177.636 91.6544L176.963 94.155ZM169.474 92.1208L166.978 91.4471L167.65 88.9465L170.147 89.6202L169.474 92.1208ZM161.985 90.0866L159.489 89.4129L160.161 86.9123L162.657 87.586L161.985 90.0866ZM154.496 88.0524L151.999 87.3787L152.672 84.8781L155.168 85.5518L154.496 88.0524ZM147.007 86.0183L144.51 85.3445L145.183 82.8439L147.679 83.5177L147.007 86.0183ZM139.505 83.9841L137.008 83.3104L137.681 80.8098L140.177 81.4835L139.505 83.9841ZM132.016 81.9499L129.519 81.2762L130.192 78.7756L132.688 79.4493L132.016 81.9499ZM124.527 79.9158L122.03 79.242L122.703 76.7414L125.199 77.4152L124.527 79.9158ZM117.037 77.8816L114.541 77.2078L115.214 74.7072L117.71 75.381L117.037 77.8816ZM109.548 75.8474L107.052 75.1737L107.725 72.6731L110.221 73.3468L109.548 75.8474Z" fill="#908D89"/>
<path d="M207.113 223.072C206.195 219.289 202.573 213.886 193.312 214.197L189.613 214.456L189.445 214.327L187.362 214.612L103.935 220.338C96.7432 220.338 90.5087 224.886 88.8014 231.39L72.8014 299.529H78.2339L93.9364 232.556C94.8159 229.227 97.0406 227.477 100.119 227.024C112.213 227.024 125.147 227.672 133.348 228.112C131.86 230.6 130.748 233.839 130.192 238.231L128.329 282.4H133.607L135.443 238.711C135.987 233.904 137.629 230.704 139.699 228.449C139.944 228.462 140.19 228.475 140.397 228.475C140.514 228.475 140.617 228.462 140.733 228.462C146.839 229.538 152.193 231.805 153.474 238.931L161.338 310.503H166.628L159.282 238.892C158.557 232.647 154.69 227.931 148.442 225.366L194.063 219.017C197.71 218.848 200.892 220.727 202.082 224.485L223.036 292.675L227.511 290.355L207.113 223.072Z" fill="#C8C6C4"/>
<path d="M125.005 216.555C125.005 216.555 101.723 222.45 89.9784 222.45C78.2468 222.45 72.4133 212.007 69.3866 195.734C66.36 179.461 60.5136 130.407 63.7084 116.181C65.9849 106.049 72.7884 102.071 84.1449 101.722C90.9485 101.501 106.095 100.996 120.103 103.173C134.111 105.336 143.657 125.419 152.271 138.609C178.011 178.022 194.813 203.534 194.813 203.534L125.005 216.555Z" fill="url(#paint1_radial_9_68)"/>
<path d="M196.882 214.443L123.375 224.096C117.762 224.096 79.1651 218.162 79.1651 212.565V207.524C79.1651 201.927 99.7828 198.377 105.409 198.377L196.895 189.126C202.509 189.126 207.062 193.661 207.062 199.258V204.298C207.049 209.908 202.496 214.443 196.882 214.443Z" fill="url(#paint2_linear_9_68)"/>
<path d="M229.128 163.356C228.3 163.9 208.562 176.74 189.678 170.093C178.761 166.258 170.612 156.929 165.451 142.366L175.424 138.363C179.421 149.622 185.358 156.709 193.079 159.443C207.165 164.431 223.385 153.975 223.54 153.872L229.128 163.356Z" fill="#8A6FE8"/>
<path d="M163.602 223.798C165.348 214.949 167.366 196.706 160.549 179.836L150.137 183.516C156.32 198.818 154.017 214.884 152.517 221.816C152.4 222.386 157.936 223.966 163.602 223.798Z" fill="url(#paint3_linear_9_68)"/>
<path d="M152.543 221.725L161.261 223.305L161.157 269.146L143.67 265.958C142.337 265.712 141.522 264.507 141.846 263.25L152.543 221.725Z" fill="#522CD5"/>
<path d="M181.956 260.957C183.249 262.369 182.926 264.015 182.486 265.725L181.141 270.973C180.895 271.905 179.886 272.527 178.877 272.346L160.653 269.029C159.514 268.822 158.829 267.798 159.1 266.723L160.252 261.242C160.756 259.273 160.187 258.405 158.919 256.215C156.733 252.471 151.754 233.386 154.664 222.101L163.641 223.733C162.942 230.639 169.552 247.456 181.956 260.957Z" fill="url(#paint4_linear_9_68)"/>
<path d="M182.473 265.725C182.784 264.533 183.016 263.367 182.706 262.305L159.967 258.172C160.433 259.169 160.549 259.985 160.226 261.255L159.075 266.736C158.803 267.798 159.501 268.835 160.627 269.029L178.852 272.346C179.847 272.527 180.869 271.905 181.115 270.973L182.473 265.725Z" fill="url(#paint5_radial_9_68)"/>
<path d="M129.584 219.069C138.599 209.17 144.148 203.443 143.89 200.606C143.825 199.893 142.945 198.468 139.091 195.682C135.831 193.324 132.041 190.655 132.041 190.642L138.832 181.922C138.832 181.922 142.661 184.63 145.959 187.014C150.357 190.189 154.509 193.881 154.987 199.323C155.66 206.799 151.883 210.815 138.586 225.417L129.584 219.069Z" fill="url(#paint6_linear_9_68)"/>
<path d="M195.136 144.634C196.688 129.669 192.239 118.578 192.239 118.578L195.796 118.047L195.873 117.969C186.405 92.367 158.803 76.0288 129.623 80.4211C96.7432 85.3704 74.3018 114.743 79.5014 146.033C84.7011 177.323 115.576 198.675 148.455 193.726C174.402 189.826 193.843 170.702 198.331 147.445C198.409 146.473 198.111 144.789 195.136 144.634Z" fill="url(#paint7_radial_9_68)"/>
<path d="M195.252 158.018L92.4489 173.488C95.3721 176.869 98.6833 179.901 102.305 182.557L188.798 169.536C191.411 165.947 193.571 162.086 195.252 158.018Z" fill="#D8CFF7"/>
<path d="M165.788 176.157L185.086 173.254L182.383 157.02L163.097 159.922L165.788 176.157Z" fill="#512BD4"/>
<path d="M168.155 169.601C168.025 169.614 167.909 169.601 167.805 169.523C167.702 169.458 167.637 169.355 167.624 169.251C167.611 169.134 167.637 169.031 167.715 168.927C167.793 168.836 167.896 168.772 168.025 168.759C168.155 168.746 168.271 168.759 168.375 168.836C168.478 168.901 168.543 169.005 168.556 169.121C168.569 169.238 168.543 169.342 168.465 169.445C168.387 169.523 168.284 169.575 168.155 169.601Z" fill="white"/>
<path d="M173.277 168.772L172.436 168.901L169.694 165.921C169.629 165.843 169.565 165.766 169.513 165.688H169.5C169.539 165.779 169.577 165.986 169.629 166.297L170.108 169.238L169.371 169.342L168.633 164.846L169.526 164.716L172.177 167.618C172.294 167.735 172.358 167.826 172.397 167.865H172.41C172.371 167.748 172.32 167.554 172.281 167.269L171.802 164.379L172.539 164.276L173.277 168.772Z" fill="white"/>
<path d="M176.873 168.24L174.286 168.629L173.548 164.133L176.032 163.77L176.135 164.405L174.415 164.664L174.622 165.934L176.2 165.701L176.303 166.336L174.725 166.569L174.945 167.89L176.769 167.618L176.873 168.24Z" fill="white"/>
<path d="M179.912 163.835L178.593 164.029L179.227 167.89L178.463 168.007L177.83 164.146L176.51 164.34L176.407 163.706L179.809 163.2L179.912 163.835Z" fill="white"/>
<path d="M195.265 144.608C196.792 129.824 192.484 118.837 192.368 118.565L130.606 127.855C130.606 127.855 126.648 128.062 127.217 131.444C127.773 134.825 129.519 144.361 131.265 154.934C131.628 157.111 133.671 157.875 135.146 157.655C135.146 157.655 194.101 147.186 195.265 144.608Z" fill="url(#paint8_radial_9_68)"/>
<path d="M158.415 150.179C158.415 150.179 166.719 141.589 168.362 139.995C169.991 138.388 171.608 138.078 173.535 139.218C175.463 140.358 186.16 146.007 186.16 146.007L158.415 150.179Z" fill="#A08BE8"/>
<path d="M198.202 148.197C198.202 148.197 199.469 144.841 195.265 144.608C195.265 144.595 134.525 153.703 134.525 153.703C133.115 153.91 131.162 153.392 130.787 152.109C130.942 153.042 131.097 153.988 131.265 154.947C131.589 156.916 133.309 157.733 134.719 157.694C134.861 157.694 135.003 157.681 135.146 157.655L139.298 157.033L198.202 148.197Z" fill="#512BD4"/>
<path d="M148.658 146.029C151.21 145.533 152.637 141.811 151.844 137.716C151.051 133.62 148.339 130.702 145.786 131.198C143.233 131.694 141.807 135.416 142.6 139.512C143.393 143.607 146.105 146.525 148.658 146.029Z" fill="#512BD4"/>
<path d="M146.567 134.89C147.369 133.841 148.585 133.245 149.839 133.167C150.784 134.359 151.521 135.979 151.87 137.844C152.077 139.01 152.116 140.125 151.987 141.161C150.577 141.783 148.882 141.679 147.537 140.747C145.571 139.386 145.131 136.756 146.567 134.89Z" fill="#8065E0"/>
<path d="M230.551 143.817L216.271 152.861C213.917 154.351 213.102 157.46 214.447 159.806L214.693 160.22C216.038 162.565 219.052 163.252 221.406 161.762L235.686 152.718C238.04 151.228 238.855 148.119 237.51 145.774L237.264 145.359C235.906 143.014 232.905 142.327 230.551 143.817Z" fill="#8A6FE8"/>
<path d="M223.178 172.36L233.358 175.302C236.074 176.066 238.894 174.356 239.644 171.492C240.394 168.616 238.803 165.675 236.087 164.91L225.649 161.892L223.178 172.36Z" fill="#8A6FE8"/>
<path d="M227.99 169.057L242.425 166.608C245.206 166.128 247.12 163.356 246.68 160.428C246.253 157.499 243.641 155.517 240.847 155.996L230.111 157.784L227.99 169.057Z" fill="#8A6FE8"/>
<path d="M227.136 165.869L240.704 160.039C243.33 158.912 244.611 155.776 243.563 153.029C242.528 150.283 239.553 148.961 236.928 150.075L223.113 156.009L227.136 165.869Z" fill="#8A6FE8"/>
<path d="M213.775 155.18C217.138 150.036 223.799 148.715 228.649 152.213C233.5 155.711 234.703 162.721 231.327 167.865C227.964 173.008 221.303 174.33 216.452 170.832C211.615 167.32 210.412 160.311 213.775 155.18Z" fill="url(#paint9_radial_9_68)"/>
<path d="M123.362 78.063L134.473 76.3527L129.455 57.4492L121.474 58.6671L123.362 78.063Z" fill="#8A6FE8"/>
<path d="M128.73 65.3267C124.85 66.9463 120.31 65.3008 118.577 61.6341C116.856 57.9804 118.59 53.7177 122.483 52.0981C126.363 50.4786 130.903 52.1241 132.636 55.7907C134.357 59.4445 132.611 63.7072 128.73 65.3267Z" fill="#D8CFF7"/>
<path d="M120.258 85.2798C119.767 85.3575 119.275 85.0077 119.262 84.5412C118.978 79.4882 122.767 74.9404 128.2 74.0983C133.632 73.2691 138.78 76.4305 140.242 81.3021C140.384 81.7685 140.048 82.235 139.556 82.2998L120.258 85.2798Z" fill="#522CD5"/>
<path d="M129.687 219.017L136.698 223.953L125.277 273.071L100.313 255.541C99.2395 254.79 99.0973 253.365 99.9897 252.354L129.687 219.017Z" fill="#522CD5"/>
<path d="M139.259 267.811C139.906 269.56 138.729 271.245 137.513 272.618L133.762 276.829C133.089 277.58 131.886 277.736 131.084 277.166L122.263 270.96C121.358 270.312 121.228 269.107 121.991 268.252L125.665 263.743C127.075 262.162 127.734 260.996 126.906 258.651C122.004 244.8 123.75 231.935 132.184 220.779L138.599 225.301C134.654 231.274 130.826 244.826 139.259 267.811Z" fill="url(#paint10_linear_9_68)"/>
<path d="M131.071 277.166C131.873 277.736 133.076 277.58 133.749 276.829L137.5 272.618C138.302 271.711 139.078 270.687 139.337 269.586L127.204 261.048C127.049 262.02 126.48 262.81 125.652 263.743L121.978 268.252C121.215 269.107 121.345 270.312 122.25 270.96L131.071 277.166Z" fill="url(#paint11_radial_9_68)"/>
<path d="M186.181 140.393C188.733 139.897 190.16 136.175 189.367 132.08C188.574 127.984 185.862 125.066 183.309 125.562C180.756 126.058 179.33 129.78 180.123 133.876C180.916 137.971 183.628 140.889 186.181 140.393Z" fill="#512BD4"/>
<path d="M184.09 129.254C184.892 128.205 186.108 127.609 187.362 127.531C188.307 128.723 189.044 130.343 189.393 132.208C189.6 133.374 189.639 134.489 189.51 135.525C188.1 136.147 186.405 136.043 185.06 135.11C183.094 133.75 182.654 131.12 184.09 129.254Z" fill="#8065E0"/>
<path d="M93.0051 187.092C88.2452 180.73 87.8442 167.644 94.5055 152.952C95.7472 150.205 106.147 154.17 104.905 156.916C98.0107 172.192 100.83 179.94 101.723 180.899C104.103 183.477 111.256 183.361 119.495 180.614C122.289 179.681 125.393 181.3 126.415 184.216C127.437 187.144 126.001 190.266 123.207 191.186C115.64 193.7 101.788 196.693 94.0786 188.375C93.6906 187.973 93.3414 187.546 93.0051 187.092Z" fill="url(#paint12_linear_9_68)"/>
<path d="M136.607 170.624L121.202 175.651C118.667 176.481 117.322 179.318 118.202 182L118.357 182.48C119.236 185.149 122.017 186.652 124.552 185.822L139.957 180.795C142.493 179.966 143.838 177.128 142.958 174.446L142.803 173.967C141.923 171.285 139.143 169.795 136.607 170.624Z" fill="#8A6FE8"/>
<path d="M123.582 196.291L133.115 202.005C135.663 203.508 138.845 202.731 140.229 200.256C141.613 197.781 140.656 194.555 138.108 193.052L128.342 187.196L123.582 196.291Z" fill="#8A6FE8"/>
<path d="M127.346 195.125L142.299 197.03C145.183 197.392 147.705 195.345 147.912 192.469C148.119 189.593 145.946 186.975 143.062 186.626L131.938 185.174L127.346 195.125Z" fill="#8A6FE8"/>
<path d="M127.54 190.409L142.376 188.88C145.248 188.595 147.214 186.017 146.774 183.14C146.334 180.264 143.657 178.165 140.798 178.45L125.691 179.992L127.54 190.409Z" fill="#8A6FE8"/>
<path d="M117.956 177.452C122.444 173.617 129.39 174.304 133.477 178.994C137.565 183.684 137.215 190.59 132.727 194.438C128.239 198.274 121.293 197.587 117.206 192.897C113.118 188.206 113.455 181.288 117.956 177.452Z" fill="url(#paint13_radial_9_68)"/>
<path d="M101.335 160.855C107.45 160.855 112.407 156.139 112.407 150.321C112.407 144.504 107.45 139.788 101.335 139.788C95.22 139.788 90.263 144.504 90.263 150.321C90.263 156.139 95.22 160.855 101.335 160.855Z" fill="url(#paint14_radial_9_68)"/>
<path d="M63.0358 121.001C61.5742 139.257 66.6316 180.977 69.3737 195.747C72.4004 212.02 78.4537 222.865 90.1983 222.865L123.259 224.148C124.927 224.148 125.833 222.191 124.733 220.921C108.837 202.575 71.689 155.128 63.0358 121.001Z" fill="#1BA6C5"/>
<path d="M339.757 298.544C338.347 298.22 212.559 298.22 211.136 298.557C208.161 299.257 207.644 301.563 210.024 302.535C210.05 302.548 210.075 302.548 210.101 302.56C215.055 304.802 242.451 306.525 275.498 306.525C308.352 306.525 335.605 304.828 340.805 302.599C340.818 302.599 340.818 302.599 340.831 302.599C340.869 302.586 340.895 302.573 340.934 302.56C340.947 302.56 340.947 302.548 340.96 302.548C343.327 301.511 342.68 299.218 339.757 298.544Z" fill="#1BA6C5"/>
<path d="M298.573 295.24C289.493 290.342 279.262 268.822 279.262 245.215C279.262 225.106 279.935 182.454 315.453 176.895L278.719 169.005L276.598 169.264L237.742 176.908C273.261 182.454 273.933 225.119 273.933 245.228C273.933 268.614 261.296 290.317 252.203 295.266C227.149 295.94 209.312 297.65 209.312 299.658C209.312 302.25 238.945 304.361 275.511 304.361C312.064 304.361 341.71 302.262 341.71 299.658C341.697 297.637 323.757 295.914 298.573 295.24Z" fill="url(#paint15_linear_9_68)"/>
<path d="M386.101 169.018C383.747 168.603 168.478 168.759 166.797 169.134C163.149 169.964 161.7 172.866 167.715 174.006H167.728C179.227 176.468 223.644 178.308 276.688 178.308C331.091 178.308 376.413 176.377 386.451 173.825H386.464C391.935 172.62 390.952 169.886 386.101 169.018Z" fill="#57CACF"/>
<path d="M276.688 175.742C338.466 175.742 388.546 173.254 388.546 170.184C388.546 167.114 338.466 164.625 276.688 164.625C214.911 164.625 164.83 167.114 164.83 170.184C164.83 173.254 214.911 175.742 276.688 175.742Z" fill="#9FE4EB"/>
<path d="M185.526 164.859L250.108 159.21C250.108 159.21 245.348 168.266 244.869 168.266C244.404 168.279 185.526 164.859 185.526 164.859Z" fill="#C8C6C4"/>
<path d="M286.971 169.16H189.82C187.453 169.16 185.539 167.243 185.539 164.872H291.265C291.253 167.23 289.338 169.16 286.971 169.16Z" fill="#605D5A"/>
<path d="M240.161 169.16H189.82C187.453 169.16 185.539 167.243 185.539 164.872H291.265H244.455C244.443 167.23 242.515 169.16 240.161 169.16Z" fill="#797673"/>
<path d="M307.317 88.3634L258.554 88.8946C257.403 88.9076 256.42 89.7238 256.2 90.8511L241.235 164.859H291.227L310.24 92.0949C310.719 90.2032 309.27 88.3505 307.317 88.3634Z" fill="#B3AFAB"/>
<path d="M307.317 88.3634L261.723 88.8946C260.572 88.9076 259.589 89.7238 259.369 90.8511L244.404 164.859H291.214L310.228 92.0949C310.719 90.2032 309.27 88.3505 307.317 88.3634Z" fill="#737373"/>
<path d="M266.276 174.408H252.953L250.535 144.374H268.708L266.276 174.408Z" fill="white"/>
<path d="M268.229 150.334L268.708 144.374H250.535L251.013 150.334H268.229Z" fill="#E1DFDD"/>
<path d="M269.691 146.318H249.177C248.478 146.318 247.948 145.67 248.09 144.983L248.918 141.109C249.021 140.604 249.474 140.228 250.004 140.228H268.85C269.367 140.228 269.82 140.591 269.936 141.109L270.764 144.983C270.919 145.67 270.389 146.318 269.691 146.318Z" fill="#605D5A"/>
<path d="M158.958 5.54539C157.742 5.94704 156.539 6.42644 155.362 6.98357C153.746 7.76096 152.258 8.65496 150.874 9.66556L153.358 15.0166C151.987 16.1697 150.784 17.4654 149.775 18.8647L143.191 18.2039C141.704 20.8211 140.708 23.6456 140.242 26.5479L146.075 28.9967C145.946 30.9272 146.127 32.8966 146.632 34.8142C145.209 35.747 142.816 37.25 141.29 38.2088C141.678 39.3101 142.156 40.3984 142.712 41.4608C143.489 42.9249 144.42 44.2854 145.442 45.5292L151.404 43.197C152.698 44.5315 154.185 45.6588 155.789 46.5916L154.742 52.6034C157.548 53.8861 160.601 54.7024 163.744 55.0134L166.809 49.4809C168.582 49.4809 170.354 49.2736 172.126 48.859L175.657 53.7436C176.937 53.329 178.205 52.8367 179.446 52.2407C181.141 51.4244 182.706 50.4786 184.142 49.4161L181.581 44.091C182.991 42.8861 184.219 41.5386 185.241 40.0745L191.566 41.0981C193.144 38.3383 194.179 35.3454 194.619 32.2747C192.769 31.6398 190.182 30.7329 188.721 30.1887C188.837 28.4266 188.695 26.6386 188.281 24.8895L193.713 21.6374C193.286 20.3288 192.743 19.0331 192.071 17.7634C191.243 16.2086 190.26 14.7704 189.147 13.4489L183.43 16.0661C182.072 14.6538 180.507 13.4748 178.8 12.516L180.197 6.68557C177.48 5.42879 174.557 4.61252 171.518 4.2627L168.957 9.76921C166.809 9.67852 164.636 9.88582 162.476 10.417L158.958 5.54539ZM178.269 24.3842C181.206 29.8907 178.709 36.6929 172.695 39.5822C166.693 42.4715 159.437 40.3466 156.514 34.8401C153.577 29.3336 156.074 22.5314 162.088 19.6421C168.103 16.7528 175.346 18.8776 178.269 24.3842Z" fill="#A7A4A0"/>
<path d="M485.128 91.0065H431.036C428.941 91.0065 427.233 89.2963 427.233 87.1973V48.1982C427.233 46.0993 428.941 44.389 431.036 44.389H485.128C487.224 44.389 488.931 46.0993 488.931 48.1982V87.1973C488.931 89.3092 487.224 91.0065 485.128 91.0065Z" fill="#84817D"/>
<path d="M427.233 81.4706V87.6638C427.233 89.5165 428.734 91.0065 430.57 91.0065H485.542C487.405 91.0065 488.931 89.4906 488.931 87.6119V81.4706H427.233Z" fill="#C5D43B"/>
<path d="M450.619 70.9499V54.3267C450.619 52.8885 452.171 51.9945 453.413 52.7071L467.796 61.0252C469.038 61.7378 469.038 63.5387 467.796 64.2513L453.4 72.5694C452.171 73.282 450.619 72.388 450.619 70.9499Z" fill="white"/>
<path d="M100.3 75.1219H38.9129C36.8046 75.1219 35.0972 73.4116 35.0972 71.2997V30.8754C35.0972 28.7635 36.8046 27.0532 38.9129 27.0532H100.3C102.408 27.0532 104.116 28.7635 104.116 30.8754V71.2997C104.116 73.4116 102.408 75.1219 100.3 75.1219Z" fill="#C5D43B"/>
<path d="M104.116 36.2781V29.6703C104.116 28.2321 102.952 27.066 101.516 27.066H37.7099C36.2742 27.066 35.1101 28.2321 35.1101 29.6703V36.2781H104.116Z" fill="#84817D"/>
<path d="M46.4408 30.8495H41.0212V33.6221H46.4408V30.8495Z" fill="#CCCAC7"/>
<path d="M55.2751 30.8495H49.8555V33.6221H55.2751V30.8495Z" fill="#CCCAC7"/>
<path d="M62.208 62.4633L46.4667 55.5316V53.925L62.208 46.0604V48.5092L49.3899 54.5987L62.208 59.9886V62.4633Z" fill="white"/>
<path d="M75.9315 42.4455L67.0067 66.441H64.2904L73.2153 42.4455H75.9315Z" fill="white"/>
<path d="M77.9752 59.9886L90.8062 54.6376L77.9752 48.5092V46.0604L93.7165 53.925V55.5316L77.9752 62.4633V59.9886Z" fill="white"/>
<path d="M295.055 59.5222H246.81V0H278.538L295.055 15.8199V59.5222Z" fill="#58D0DB"/>
<path d="M278.538 0V15.8458H295.055V15.8199L278.538 0Z" fill="#9FE4EB"/>
<path d="M284.721 23.6197H256.459C255.967 23.6197 255.579 23.2181 255.579 22.7387C255.579 22.2593 255.98 21.8576 256.459 21.8576H284.721C285.212 21.8576 285.6 22.2593 285.6 22.7387C285.6 23.2181 285.212 23.6197 284.721 23.6197Z" fill="#1189A5"/>
<path d="M277.658 30.7069H256.459C255.967 30.7069 255.579 30.3053 255.579 29.8259C255.579 29.3335 255.98 28.9449 256.459 28.9449H277.658C278.15 28.9449 278.538 29.3465 278.538 29.8259C278.538 30.3053 278.15 30.7069 277.658 30.7069Z" fill="#1189A5"/>
<path d="M284.721 37.7812H256.459C255.967 37.7812 255.579 37.3795 255.579 36.9001C255.579 36.4078 255.98 36.0191 256.459 36.0191H284.721C285.212 36.0191 285.6 36.4208 285.6 36.9001C285.6 37.3795 285.212 37.7812 284.721 37.7812Z" fill="#1189A5"/>
<path d="M277.658 44.8554H256.459C255.967 44.8554 255.579 44.4538 255.579 43.9744C255.579 43.482 255.98 43.0934 256.459 43.0934H277.658C278.15 43.0934 278.538 43.495 278.538 43.9744C278.538 44.4538 278.15 44.8554 277.658 44.8554Z" fill="#1189A5"/>
<path d="M409.513 8.08487L376.996 15.7292L377.099 49.9215C376.284 49.17 375.133 49.5198 373.93 49.5198C372.766 49.5198 371.809 48.3148 370.994 49.0274L370.916 15.7292L338.399 8.08487L338.438 48.1723L369.61 53.8473C370.658 55.5316 371.938 56.1017 373.917 56.1017C375.896 56.1017 377.241 55.4539 378.224 53.8602L409.461 48.276L409.513 8.08487Z" fill="#0769DC"/>
<path d="M404.611 4.53479C404.611 4.53479 381.122 8.7327 378.095 9.70444C375.068 10.6632 373.827 12.7233 373.904 16.6232C373.995 20.5361 373.904 49.8048 373.904 49.8048L405.128 43.7153L404.611 4.53479Z" fill="#CAE0FA"/>
<path d="M343.547 4.53479C343.547 4.53479 366.803 8.7327 369.83 9.70444C372.856 10.6632 374.098 12.7233 374.021 16.6232C373.93 20.5361 373.904 49.8048 373.904 49.8048L342.797 43.793L343.547 4.53479Z" fill="#A3C9F6"/>
<path d="M368.187 16.8953C368.148 16.8953 368.109 16.8953 368.07 16.8823L349.199 13.2156C348.888 13.1508 348.682 12.8528 348.733 12.5289C348.798 12.205 349.108 12.0107 349.419 12.0625L368.29 15.7292C368.601 15.794 368.808 16.092 368.756 16.4159C368.704 16.7009 368.458 16.8953 368.187 16.8953Z" fill="#B3AFAB"/>
<path d="M368.187 22.4148C368.148 22.4148 368.109 22.4148 368.071 22.4018L349.186 18.7351C348.876 18.6703 348.669 18.3723 348.721 18.0484C348.785 17.7245 349.096 17.5302 349.406 17.582L368.291 21.2487C368.601 21.3135 368.808 21.6115 368.756 21.9354C368.704 22.2204 368.459 22.4148 368.187 22.4148Z" fill="#B3AFAB"/>
<path d="M368.187 27.9213C368.148 27.9213 368.109 27.9213 368.071 27.9083L349.186 24.2416C348.876 24.1769 348.669 23.8789 348.721 23.5549C348.785 23.231 349.096 23.0237 349.406 23.0885L368.291 26.7552C368.601 26.82 368.808 27.118 368.756 27.4419C368.704 27.7269 368.459 27.9213 368.187 27.9213Z" fill="#B3AFAB"/>
<path d="M368.187 33.4278C368.148 33.4278 368.11 33.4278 368.071 33.4148L349.199 29.7481C348.889 29.6834 348.682 29.3854 348.734 29.0614C348.798 28.7375 349.109 28.5302 349.419 28.595L368.291 32.2617C368.601 32.3265 368.808 32.6245 368.756 32.9484C368.704 33.2334 368.459 33.4278 368.187 33.4278Z" fill="#B3AFAB"/>
<path d="M379.647 16.8953C379.686 16.8953 379.725 16.8953 379.763 16.8823L398.635 13.2156C398.945 13.1508 399.152 12.8528 399.101 12.5289C399.036 12.205 398.726 12.0107 398.415 12.0625L379.544 15.7292C379.233 15.794 379.026 16.092 379.078 16.4159C379.13 16.7009 379.375 16.8953 379.647 16.8953Z" fill="#B3AFAB"/>
<path d="M379.647 22.4148C379.686 22.4148 379.725 22.4148 379.763 22.4018L398.648 18.7351C398.958 18.6703 399.165 18.3723 399.114 18.0484C399.049 17.7245 398.738 17.5302 398.428 17.582L379.544 21.2487C379.233 21.3135 379.026 21.6115 379.078 21.9354C379.13 22.2204 379.375 22.4148 379.647 22.4148Z" fill="#B3AFAB"/>
<path d="M379.647 27.9213C379.686 27.9213 379.725 27.9213 379.763 27.9083L398.648 24.2416C398.958 24.1769 399.165 23.8789 399.114 23.5549C399.049 23.231 398.738 23.0237 398.428 23.0885L379.544 26.7552C379.233 26.82 379.026 27.118 379.078 27.4419C379.13 27.7269 379.375 27.9213 379.647 27.9213Z" fill="#B3AFAB"/>
<path d="M379.647 33.4278C379.686 33.4278 379.725 33.4278 379.763 33.4148L398.635 29.7481C398.945 29.6834 399.152 29.3854 399.101 29.0614C399.036 28.7375 398.726 28.5302 398.415 28.595L379.544 32.2617C379.233 32.3265 379.026 32.6245 379.078 32.9484C379.13 33.2334 379.375 33.4278 379.647 33.4278Z" fill="#B3AFAB"/>
<path d="M371.731 50.5563C372.43 50.1287 373.232 49.8826 374.111 49.8826C374.913 49.8826 375.676 50.1028 376.336 50.4656L405.904 45.7106L406.176 8.68086L404.52 4.52182L404.352 42.9638C404.352 42.9638 380.087 47.0062 377.914 47.4986C375.741 48.0039 373.956 49.753 373.956 49.753C373.956 49.753 373.102 48.2889 370.373 47.5893C367.644 46.8896 343.56 42.7824 343.56 42.7824L343.624 4.59956L341.917 8.95295L342.021 45.3996L371.731 50.5563Z" fill="#4995EE"/>
<defs>
<radialGradient id="paint0_radial_9_68" cx="0" cy="0" r="1" gradientUnits="userSpaceOnUse" gradientTransform="translate(250.113 181.977) rotate(1.55852) scale(358.013 207.241)">
<stop offset="0.1821" stop-color="#E1EFF9"/>
<stop offset="0.9144" stop-color="#B8D6F7"/>
</radialGradient>
<radialGradient id="paint1_radial_9_68" cx="0" cy="0" r="1" gradientUnits="userSpaceOnUse" gradientTransform="translate(90.6964 116.085) scale(63.2577 63.3652)">
<stop offset="0.0613" stop-color="#1BA6C5"/>
<stop offset="0.8867" stop-color="#57CACF"/>
</radialGradient>
<linearGradient id="paint2_linear_9_68" x1="143.103" y1="224.097" x2="143.103" y2="189.127" gradientUnits="userSpaceOnUse">
<stop offset="0.0613" stop-color="#1BA6C5"/>
<stop offset="0.8867" stop-color="#57CACF"/>
</linearGradient>
<linearGradient id="paint3_linear_9_68" x1="157.801" y1="179.92" x2="158.811" y2="223.927" gradientUnits="userSpaceOnUse">
<stop offset="0.252" stop-color="#522CD5"/>
<stop offset="0.5558" stop-color="#8A6FE8"/>
</linearGradient>
<linearGradient id="paint4_linear_9_68" x1="158.165" y1="221.426" x2="176.065" y2="274.081" gradientUnits="userSpaceOnUse">
<stop stop-color="#522CD5"/>
<stop offset="0.4397" stop-color="#8A6FE8"/>
</linearGradient>
<radialGradient id="paint5_radial_9_68" cx="0" cy="0" r="1" gradientUnits="userSpaceOnUse" gradientTransform="translate(172.708 251.238) rotate(10.3135) scale(19.522 18.5765)">
<stop offset="0.034" stop-color="#522CD5"/>
<stop offset="0.9955" stop-color="#8A6FE8"/>
</radialGradient>
<linearGradient id="paint6_linear_9_68" x1="133.419" y1="183.772" x2="147.165" y2="222.289" gradientUnits="userSpaceOnUse">
<stop offset="0.252" stop-color="#522CD5"/>
<stop offset="0.5558" stop-color="#8A6FE8"/>
</linearGradient>
<radialGradient id="paint7_radial_9_68" cx="0" cy="0" r="1" gradientUnits="userSpaceOnUse" gradientTransform="translate(148.767 113.981) rotate(171.441) scale(59.9579 57.1918)">
<stop offset="0.4744" stop-color="#A08BE8"/>
<stop offset="0.8618" stop-color="#8065E0"/>
</radialGradient>
<radialGradient id="paint8_radial_9_68" cx="0" cy="0" r="1" gradientUnits="userSpaceOnUse" gradientTransform="translate(189.343 110.026) rotate(171.441) scale(62.1356 59.269)">
<stop offset="0.0933" stop-color="#E1DFDD"/>
<stop offset="0.6573" stop-color="white"/>
</radialGradient>
<radialGradient id="paint9_radial_9_68" cx="0" cy="0" r="1" gradientUnits="userSpaceOnUse" gradientTransform="translate(218.355 159.702) rotate(-67.3657) scale(11.2106 10.7415)">
<stop stop-color="#8065E0"/>
<stop offset="1" stop-color="#512BD4"/>
</radialGradient>
<linearGradient id="paint10_linear_9_68" x1="137.758" y1="221.123" x2="130.445" y2="276.918" gradientUnits="userSpaceOnUse">
<stop stop-color="#522CD5"/>
<stop offset="0.4397" stop-color="#8A6FE8"/>
</linearGradient>
<radialGradient id="paint11_radial_9_68" cx="0" cy="0" r="1" gradientUnits="userSpaceOnUse" gradientTransform="translate(138.787 257.591) rotate(35.1556) scale(17.4783 17.8109)">
<stop offset="0.034" stop-color="#522CD5"/>
<stop offset="0.9955" stop-color="#8A6FE8"/>
</radialGradient>
<linearGradient id="paint12_linear_9_68" x1="87.2009" y1="160.297" x2="122.01" y2="193.033" gradientUnits="userSpaceOnUse">
<stop offset="0.2495" stop-color="#967FE6"/>
<stop offset="0.6748" stop-color="#8A6FE8"/>
</linearGradient>
<radialGradient id="paint13_radial_9_68" cx="0" cy="0" r="1" gradientUnits="userSpaceOnUse" gradientTransform="translate(130.142 186.557) rotate(94.5898) scale(10.9134 11.0295)">
<stop stop-color="#8065E0"/>
<stop offset="1" stop-color="#512BD4"/>
</radialGradient>
<radialGradient id="paint14_radial_9_68" cx="0" cy="0" r="1" gradientUnits="userSpaceOnUse" gradientTransform="translate(98.729 147.185) rotate(-8.55942) scale(11.058 10.5479)">
<stop stop-color="#8065E0"/>
<stop offset="1" stop-color="#512BD4"/>
</radialGradient>
<linearGradient id="paint15_linear_9_68" x1="275.502" y1="169.008" x2="275.502" y2="304.35" gradientUnits="userSpaceOnUse">
<stop offset="0.0613" stop-color="#1BA6C5"/>
<stop offset="0.252" stop-color="#57CACF"/>
</linearGradient>
</defs>
</svg>
