<svg width="41" height="40" viewBox="0 0 41 40" fill="none" xmlns="http://www.w3.org/2000/svg">
<g id="Logo 30" clip-path="url(#clip0_85_297)">
<g id="Group">
<g id="Group_2">
<path id="Vector" d="M18.2267 25.84C18.3334 25.9734 18.3467 26.16 18.2534 26.3067C18.0934 26.56 17.9467 26.8134 17.8 27.0667C16.96 28.52 16.2667 30.0534 15.72 31.64C15.64 31.8534 15.3467 31.88 15.24 31.68C13.84 29.2 11.8534 27.1067 9.42671 25.56C6.81338 23.9067 3.82671 22.9867 0.733377 22.8934C0.520044 22.8934 0.34671 22.7067 0.34671 22.4934V17.5067C0.34671 17.2934 0.520044 17.12 0.733377 17.1067C3.82671 17.0134 6.81338 16.0934 9.42671 14.44C11.84 12.9067 13.84 10.8 15.24 8.32003C15.36 8.12003 15.6534 8.14669 15.72 8.36003C16.2667 9.94669 16.96 11.48 17.8 12.9334C17.9467 13.1867 18.1067 13.44 18.2534 13.6934C18.3467 13.84 18.3334 14.0267 18.2267 14.16C16.3734 16.4934 14.1334 18.4134 11.5467 19.88L11.3467 20L11.5467 20.12C14.1334 21.5867 16.3867 23.5067 18.2267 25.84Z" fill="#0033E5"/>
</g>
<g id="Group_3">
<path id="Vector_2" d="M40.3334 17.5067V22.4933C40.3334 22.7067 40.16 22.88 39.9467 22.8933C30.8534 23.1733 23.5067 30.52 23.2267 39.6133C23.2267 39.8267 23.04 40 22.8267 40H17.8534C17.6267 40 17.4534 39.8133 17.4534 39.6C17.64 31.56 22.08 24.1333 29.1067 20.12L29.3067 20L29.1067 19.88C22.0667 15.8667 17.64 8.44 17.4534 0.4C17.4534 0.173333 17.6267 0 17.8534 0H22.8267C23.04 0 23.2134 0.173333 23.2267 0.386667C23.5067 9.48 30.8534 16.8267 39.9467 17.1067C40.16 17.1067 40.3334 17.2933 40.3334 17.5067Z" fill="#0033E5"/>
</g>
</g>
</g>
<defs>
<clipPath id="clip0_85_297">
<rect width="40" height="40" fill="white" transform="translate(0.333374)"/>
</clipPath>
</defs>
</svg>
