<svg width="20" height="20" viewBox="0 0 20 20" fill="none" xmlns="http://www.w3.org/2000/svg">
<path d="M7.5 12.5C7.5 10.143 7.5 8.9645 8.23223 8.23223C8.9645 7.5 10.143 7.5 12.5 7.5H13.3333C15.6903 7.5 16.8688 7.5 17.6011 8.23223C18.3333 8.9645 18.3333 10.143 18.3333 12.5V13.3333C18.3333 15.6903 18.3333 16.8688 17.6011 17.6011C16.8688 18.3333 15.6903 18.3333 13.3333 18.3333H12.5C10.143 18.3333 8.9645 18.3333 8.23223 17.6011C7.5 16.8688 7.5 15.6903 7.5 13.3333V12.5Z" stroke="#0033E5" stroke-width="1.5" stroke-linecap="round" stroke-linejoin="round"/>
<path d="M14.1664 7.50008C14.1644 5.03584 14.1272 3.75942 13.4098 2.88544C13.2713 2.71666 13.1166 2.5619 12.9478 2.42338C12.0258 1.66675 10.6561 1.66675 7.9165 1.66675C5.17694 1.66675 3.80715 1.66675 2.8852 2.42338C2.71641 2.56189 2.56165 2.71666 2.42314 2.88544C1.6665 3.8074 1.6665 5.17718 1.6665 7.91675C1.6665 10.6563 1.6665 12.0261 2.42314 12.9481C2.56165 13.1168 2.71641 13.2716 2.8852 13.4101C3.75918 14.1274 5.0356 14.1647 7.49984 14.1667" stroke="#0033E5" stroke-width="1.5" stroke-linecap="round" stroke-linejoin="round"/>
</svg>
