<svg width="40" height="40" viewBox="0 0 40 40" fill="none" xmlns="http://www.w3.org/2000/svg">
<path d="M15.2734 12.8701C15.2732 13.4006 15.0622 13.9092 14.6869 14.2841C14.3117 14.6589 13.8029 14.8694 13.2724 14.8691C12.742 14.8689 12.2334 14.6579 11.8585 14.2826C11.4836 13.9074 11.2732 13.3986 11.2734 12.8681C11.2737 12.3377 11.4847 11.8291 11.8599 11.4542C12.2352 11.0793 12.744 10.8689 13.2744 10.8691C13.8049 10.8694 14.3135 11.0804 14.6884 11.4556C15.0632 11.8309 15.2737 12.3397 15.2734 12.8701ZM15.3334 16.3501H11.3334V28.8701H15.3334V16.3501ZM21.6534 16.3501H17.6734V28.8701H21.6134V22.3001C21.6134 18.6401 26.3834 18.3001 26.3834 22.3001V28.8701H30.3334V20.9401C30.3334 14.7701 23.2734 15.0001 21.6134 18.0301L21.6534 16.3501Z" fill="#0033E5"/>
<circle cx="20" cy="20" r="19.5" stroke="#0033E5"/>
</svg>
