<svg width="26" height="26" viewBox="0 0 26 26" fill="none" xmlns="http://www.w3.org/2000/svg">
<rect x="0.375" y="0.375" width="25.25" height="25.25" rx="12.625" stroke="#F0F7FF" stroke-width="0.75"/>
<path d="M18.1797 13.2279L14.158 17.2496C14.0965 17.3111 14.013 17.3457 13.926 17.3457C13.839 17.3457 13.7555 17.3111 13.694 17.2496C13.6325 17.188 13.5979 17.1046 13.5979 17.0176C13.5979 16.9305 13.6325 16.8471 13.694 16.7855L17.1557 13.3238L8.04819 13.3238C7.96322 13.3208 7.88274 13.2849 7.82369 13.2238C7.76464 13.1626 7.73164 13.0809 7.73164 12.9959C7.73164 12.9109 7.76464 12.8292 7.82369 12.768C7.88274 12.7068 7.96322 12.671 8.04819 12.668L17.1557 12.668L13.694 9.20624C13.6325 9.1447 13.5979 9.06124 13.5979 8.97422C13.5979 8.8872 13.6325 8.80374 13.694 8.7422C13.7555 8.68066 13.839 8.64609 13.926 8.64609C14.013 8.64609 14.0965 8.68066 14.158 8.7422L18.1797 12.7639C18.2412 12.8254 18.2758 12.9089 18.2758 12.9959C18.2758 13.0829 18.2412 13.1664 18.1797 13.2279Z" fill="#F0F7FF"/>
</svg>
